<?xml version="1.0" encoding="UTF-8"?>
<svg id="Layer_1" data-name="Layer 1" xmlns="http://www.w3.org/2000/svg" viewBox="0 0 1849.89 470.97">
  <defs>
    <style>
      .cls-1 {
        fill: #fff;
      }
    </style>
  </defs>
  <g>
    <g>
      <path class="cls-1" d="M1512,54.97h94v27h-94v31.5c0,2.22,6.29,8.5,8.5,8.5h111c.11,0,1.5,1.39,1.5,1.5v26.5h-113.5c-13.41,0-29.34-15.53-33.22-27.78-4.35-13.73-3.39-63.44-2.32-79.77,1.22-18.74,16-41.45,36.55-41.45h111c.11,0,1.5,1.39,1.5,1.5v25c0,.11-1.39,1.5-1.5,1.5h-111c-1.39,0-8.5,7.1-8.5,8.5v17.5Z"/>
      <g>
        <path class="cls-1" d="M1315,.97v28h-111.5c-2.97,0-9.5,7.4-9.5,10.5v15.5h95v27h-95v30.5c0,1.99,6.42,9.76,9.56,9.44,34.22,2,71.08-2.46,104.98.01,2.24.16,4.25.89,6.46,1.04v27h-113.5c-16.69,0-33.17-20.63-34.54-36.46-1.68-19.48-1.68-56.59,0-76.07,1.48-17.16,18.61-36.46,36.54-36.46h111.5Z"/>
        <path class="cls-1" d="M1465,149.97h-29.5l-29.09-55.91c-2.99-5.18-12.97-12.09-18.91-12.09h-28.5v68h-27V.97h97.5c1.08,0,8.59,2.21,10.19,2.81,24.32,9.08,32.62,38.82,19.13,60.51-6.39,10.28-15.92,14.14-26.81,18.21l32.99,67.46ZM1359,54.97h68.5c4.7,0,10.13-6.79,10.55-11.5s-3.89-14.5-8.55-14.5h-70.5v26Z"/>
      </g>
    </g>
    <polygon class="cls-1" points="1029 .97 1029 54.97 1123 54.97 1123 .97 1150 .97 1150 149.97 1123 149.97 1123 81.97 1029 81.97 1029 149.97 1002 149.97 1002 .97 1029 .97"/>
    <g>
      <path class="cls-1" d="M832,42.97h-27c-.24,0-.15-3.33-.69-4.8-2.19-5.96-5.3-8.63-11.76-9.25-19.71-1.91-42.76,1.33-62.82.28-14.53,3.18-13.74,23.38.21,26.32,23.37,4.92,54.72-6.01,77.41,5.59,37.6,19.23,31.14,76.26-9.58,87.14-12.3,3.28-47.59,2.79-61.32,1.76-25.59-1.92-44.84-22.37-44.46-48.04h26.5c2.2,2.1,1.36,5.43,2.45,8.55,1.62,4.67,7.96,10.24,12.78,11.22,8.73,1.77,43.81,1.15,53.81.27,22.27-1.97,23.81-34.37,1.5-38.59-23.91-4.52-61.48,7.16-81.52-8.48-26.04-20.33-18.04-64.56,14.44-72.51,13.53-3.31,55.4-2.64,70.57-1.51,22.89,1.72,40.72,18.44,39.46,42.04Z"/>
      <path class="cls-1" d="M365,1.97v148l-121-92v92h-27V1.97l121,92V.97h23.5c.54,0,2.22,1.55,3.5,1Z"/>
      <path class="cls-1" d="M525.34,75.56c0,41.06-33.29,74.35-74.35,74.35s-74.35-33.29-74.35-74.35S409.93,1.2,450.99,1.2s74.35,33.29,74.35,74.35ZM497.8,75.54c0-25.86-20.96-46.82-46.82-46.82s-46.82,20.96-46.82,46.82,20.96,46.82,46.82,46.82,46.82-20.96,46.82-46.82Z"/>
      <path class="cls-1" d="M680.28,75.57c0,41.06-33.29,74.35-74.35,74.35s-74.35-33.29-74.35-74.35S564.86,1.22,605.93,1.22s74.35,33.29,74.35,74.35ZM652.75,75.56c0-25.86-20.96-46.82-46.82-46.82s-46.82,20.96-46.82,46.82,20.96,46.82,46.82,46.82,46.82-20.96,46.82-46.82Z"/>
      <path class="cls-1" d="M877,81.97v68h-26.5c-.11,0-1.5-1.39-1.5-1.5V2.47c0-.11,1.39-1.5,1.5-1.5h96c26.47,0,43.39,33.04,33.68,56.68-3.85,9.38-19.13,24.32-29.68,24.32h-73.5ZM877,54.97h69.5c.6,0,5.57-3.7,6.35-4.65,4.11-4.93,4.35-11.92.16-16.86-.92-1.08-5.65-4.49-6.51-4.49h-69.5v26Z"/>
    </g>
  </g>
  <g>
    <g>
      <path class="cls-1" d="M1608.5,237.97c15.99,2.48,24.19,20.81,22.5,35.5-.41,3.57-4.14,9.85-4.07,10.93.02.33,3.09,1.88,4.11,3.01,13.31,14.62,14.88,37.13.94,52.04-3.37,3.61-14.79,10.51-19.49,10.51h-75.5v-112h71.5ZM1556,277.97h49.5c5.57,0,9.05-12.74,3.47-17.47-.53-.45-5.17-2.53-5.47-2.53h-47.5v20ZM1556,328.97h54.5c.27,0,4.19-1.75,4.85-2.15,6.76-4.07,8.5-13.07,5.21-19.91-.91-1.89-6.35-7.94-8.06-7.94h-56.5v30Z"/>
      <path class="cls-1" d="M1749,237.97v20h-77.5c-8.04,0-9.67,14.13-8.5,20h67v21h-67v22.5c0,1.39,4.75,7.5,6.5,7.5h79.5v21h-80.5c-12.76,0-23.54-16.85-24.54-28.46-1.02-11.8-1.45-53.74,1.53-63.54,2.26-7.42,12.89-20,21-20h82.5Z"/>
    </g>
    <path class="cls-1" d="M1827.5,237.97c1.37.23,6.67,2.91,8.19,3.81,22.82,13.57,17.09,51.82-9.7,56.7l23.58,49.45c.87.62-.95,2.04-1.07,2.04h-20.5l-21.15-44.35c-.87-1.66-8.44-6.65-9.35-6.65h-22.5v49.5c0,.11-1.39,1.5-1.5,1.5h-17c-.11,0-1.5-1.39-1.5-1.5v-110.5h72.5ZM1822.5,257.97h-47.5v20h48.5c.27,0,4.03-2.15,4.55-2.72,5.17-5.71,1.81-15.97-5.55-17.28Z"/>
    <polygon class="cls-1" points="1530 237.97 1530 349.97 1511 349.97 1511 279.97 1477.5 306.01 1444 279.97 1444 349.97 1425 349.97 1425 237.97 1477.67 279.83 1530 237.97"/>
    <polygon class="cls-1" points="1230 237.97 1230 277.97 1297 277.97 1297 237.97 1316 237.97 1316 349.97 1297 349.97 1297 298.97 1230 298.97 1230 349.97 1211 349.97 1211 237.97 1230 237.97"/>
    <path class="cls-1" d="M1205,237.97v20h-54.5c-7.35,0-17.85,6.87-22.52,12.48-12.52,15.02-10.5,38.96,4.7,51.35,2.81,2.29,11.51,7.17,14.83,7.17h57.5v21h-57.5c-6.34,0-20.8-6.94-25.98-11.02-30.26-23.9-28.01-74.65,5.81-94.14,3.3-1.9,13.91-6.83,17.17-6.83h60.5Z"/>
    <polygon class="cls-1" points="1424 349.97 1403.5 349.97 1370.5 282.96 1337.5 349.97 1317 349.97 1370.5 237.99 1424 349.97"/>
  </g>
  <g>
    <path class="cls-1" d="M239,237.97v20h-82.5c-.3,0-4.88,2.07-5.48,2.52-4.99,3.73-2.44,12.01-3.02,17.48h71v21h-71v23.5c0,1.27,5.22,6.5,6.5,6.5h84.5v21h-85.5c-12.88,0-25.47-16.17-26.54-28.46-1.04-12.03-1.45-52.33,1.53-62.54,2.27-7.77,13.76-21,22-21h88.5Z"/>
    <path class="cls-1" d="M746,237.97v20h-58.5c-19.56,0-35.69,21.56-33.24,40.24,1.67,12.74,15.57,30.76,29.24,30.76h41.5v-20h-34.5c-.11,0-1.5-1.39-1.5-1.5v-19.5h55.5c.11,0,1.5,1.39,1.5,1.5v59c0,.11-1.39,1.5-1.5,1.5h-60c-3.85,0-13.3-3.18-17.18-4.82-41.37-17.45-45.38-75.34-7.62-98.98,3.91-2.45,16.66-8.2,20.8-8.2h65.5Z"/>
    <polygon class="cls-1" points="598 307.97 598 237.97 619 237.97 619 348.97 527 279.97 527 349.97 507 349.97 507 237.97 598 307.97"/>
    <path class="cls-1" d="M21,237.97v40h71v-40h20v112h-20v-51H21v51H1.5c-.11,0-1.5-1.39-1.5-1.5v-110.5h21Z"/>
    <polygon class="cls-1" points="361 349.97 339.5 349.97 304.5 282.96 269.5 349.97 248 349.97 304.5 237.99 361 349.97"/>
    <path class="cls-1" d="M386,237.97v79.5c0,3.48,8.01,11.5,11.5,11.5h60.5v21h-61.5c-13.82,0-31.5-18.94-31.5-32.5v-79.5h21Z"/>
    <rect class="cls-1" x="472" y="237.97" width="21" height="112"/>
  </g>
  <path class="cls-1" d="M869,204.97l-9,17h-43c24.87,18.74,50.96,36.12,76.65,53.79,38.44-16.98,77.74-32.29,116.02-49.62,2.35-1.06,5.95-2.02,7.33-4.17h-28l-9-17h98l-48.51,84c-1.36.32-1.73-.8-2.34-1.64-1.05-1.44-8.09-13.86-7.95-14.68l23.29-41.69-140.48,60.05,26,136.96c2.3.56,1.64-.42,2.29-1.26,3.89-5.03,21.84-40.74,24.21-40.74h18.5l-48.99,85-48.01-85h20l9.01,17.99.88-2.37-21.84-111.17-70.56-49.44-1.48.48c1.97,6.55,17.38,26.28,17.78,31.18.07.87-7.29,14.16-8.32,15.29-.82.9-1,1.36-2.44,1.04l-48.02-83.99h98ZM924.5,382.97h152c.12,0,1.95-1.42,1.07-2.04l-75.17-128.83c-.9-.22-12.48,4.71-14.13,5.63-.88.5-1.69-.32-1.15,1.59l50.88,87.63-26.51-17.88-9.4,14.39,29.9,21.49h-112c1.38,5.84,1.44,12.91,4.5,18ZM946,201.97c.31-5.55-2.37-11.24-3-16.52-.25-2.13.36-1.85,1.48-.47l29.5,51.55c1.68,1.07,12.43-4.03,14.73-5.34.9-.51,1.67.4,1.14-1.55l-65.36-112.65-72.37,125.35,13.24,9.55,1.65-1.39,53.48-91.52,8.49,42.99h17ZM943.03,277.04l3.65,18.49-.63.92-35.99,15.61,2.94,16.91c1.7,1.47,36.2-15.61,41.56-16.99,5.48.28,24.34,17.96,27.79,16.94l8.53-13.45-25.94-18.95-4.96-25.55c-1.61-1.61-14.05,5.92-16.97,6.08ZM987.5,361.97l27.36-46.75c.54-2.21-8.09-14.08-9.37-17.26l-36.49,64.01h18.5ZM951.34,205.13l-51.9-.21-2.96,1.04-8.49,16.01h73c-.47-2.69-8.25-16.38-9.66-16.84ZM934,225.97c-.06,3.37,3.7,26.88,5.49,26.98l15.37-7.55-3.87-19.43h-17ZM897.5,382.97c.7,0,1.11-1.2,1.11-2.06-.04-3.81-2.58-12.42-4.11-15.94h-61.5c.53-1.52,3.81-2.47,5.33-3.17,2.14-.98,14.14-5.27,14.6-5.91,1.4-1.99-6.57-12.22-7.55-14.99-2.64-.56-30.83,12.73-36.12,14.82-.92.36-3.84,2.34-3.23-.23l46.84-80.26c.86-3.38-10.42-9.26-13.29-11.25l-68.07,117.01c-.94.51.76,1.92,1.01,1.98h125ZM881,361.97l-36.51-64.01-7.65,11.33-2.36,5.75,26.53,46.92h20ZM886.99,321.97l-18.94,8.05c-.48.7,6.38,14.38,7.07,14.82,1.4.9,14.25-4.29,14.72-5.03,1.44-2.29-2.51-14.44-2.85-17.84ZM886.99,321.97l-18.94,8.05c-.48.7,6.38,14.38,7.07,14.82,1.4.9,14.25-4.29,14.72-5.03,1.44-2.29-2.51-14.44-2.85-17.84Z"/>
</svg>