<?xml version="1.0" encoding="UTF-8"?>
<svg id="Layer_1" xmlns="http://www.w3.org/2000/svg" version="1.1" viewBox="0 0 1917 548">
  <!-- Generator: Adobe Illustrator 29.5.1, SVG Export Plug-In . SVG Version: 2.1.0 Build 141)  -->
  <defs>
    <style>
      .st0 {
        fill: #c9c9c9;
      }
    </style>
  </defs>
  <g>
    <path class="st0" d="M797.03,195.31c-9.58,0-19.59-.3-26.13-.79-29.74-2.23-51.83-26.14-51.4-55.63.06-4.1,3.4-7.39,7.5-7.39h26.5c1.93,0,3.78.74,5.17,2.07,3.35,3.19,3.79,7.19,4.05,9.59.08.76.17,1.54.31,1.93.75,2.16,4.98,5.89,7.19,6.34,1.14.23,6.14.98,22.76.98,12.61,0,24.3-.43,28.91-.84,7.46-.66,10.38-6.22,10.63-11.21.24-4.88-2.2-11.09-9.86-12.54-3.53-.67-7.83-.99-13.16-.99-4.94,0-10.13.26-15.62.54-5.65.29-11.5.58-17.25.58-12.02,0-27.28-1.15-38.71-10.07-14.71-11.48-21.32-30.38-17.26-49.32,3.9-18.19,17.14-32.14,34.53-36.39,8.96-2.19,27.02-2.65,40.6-2.65,11.93,0,24.61.37,32.32.95,13.16.99,25.09,6.33,33.6,15.06,8.96,9.19,13.5,21.57,12.79,34.86-.21,3.98-3.5,7.1-7.49,7.1h-27c-1.67,0-7.14-.6-7.68-8.39-.03-.43-.08-1.18-.14-1.58-1.21-3.2-2.02-3.79-5.35-4.12-4.03-.39-8.52-.58-13.74-.58-6.32,0-12.99.28-19.45.55-6.58.28-13.38.56-19.95.56-2.93,0-5.62-.06-8.16-.17-3.49,1.15-3.88,4.13-3.87,5.43,0,.83.25,5.04,4.84,6.01,3.83.81,8.36,1.2,13.86,1.2,5.07,0,10.32-.32,15.87-.65,5.67-.34,11.54-.69,17.34-.69,8.46,0,21,.66,32.21,6.39,20.11,10.29,31.09,30.95,28.65,53.92-2.43,22.84-18.01,41.34-39.71,47.14-8.62,2.3-25.25,2.79-37.68,2.79ZM400,194.5c-1.61,0-3.21-.52-4.54-1.53l-108.96-82.85v76.88c0,4.14-3.36,7.5-7.5,7.5h-27c-4.14,0-7.5-3.36-7.5-7.5V39c0-2.85,1.62-5.45,4.17-6.72,1.06-.52,2.2-.78,3.33-.78,1.61,0,3.21.52,4.54,1.53l108.96,82.85V38c0-4.14,3.36-7.5,7.5-7.5h23.5c1.71,0,3.04.56,3.93,1.01,1.3.07,2.58.49,3.7,1.23,2.1,1.39,3.37,3.74,3.37,6.26v50.35c10.04-33.85,41.43-58.61,78.49-58.61s66.45,23.21,77.47,55.41c11.02-32.19,41.58-55.4,77.46-55.4,45.13,0,81.85,36.72,81.85,81.85s-36.72,81.85-81.85,81.85c-35.89,0-66.45-23.21-77.47-55.41-11.02,32.19-41.58,55.4-77.46,55.4s-68.45-24.76-78.49-58.61v51.18c0,2.85-1.62,5.45-4.17,6.72-1.06.52-2.2.78-3.33.78ZM640.92,73.26c-21.68,0-39.32,17.64-39.32,39.32s17.64,39.32,39.32,39.32,39.32-17.64,39.32-39.32-17.64-39.32-39.32-39.32ZM485.98,73.25c-21.68,0-39.32,17.64-39.32,39.32s17.64,39.32,39.32,39.32,39.32-17.64,39.32-39.32-17.64-39.32-39.32-39.32ZM1554.5,194.5c-16.85,0-35.54-17.75-40.37-33.01-5.07-16-3.54-68.96-2.66-82.52,1.53-23.41,19.58-48.47,44.03-48.47h111c4.29,0,9,4.71,9,9v25c0,4.29-4.71,9-9,9h-108.85c-.99.87-2.28,2.16-3.15,3.15v7.85h86.5c4.14,0,7.5,3.36,7.5,7.5v27c0,4.14-3.36,7.5-7.5,7.5h-86.5v22.43c.66.82,1.75,1.91,2.57,2.57h109.43c4.29,0,9,4.71,9,9v26.5c0,4.14-3.36,7.5-7.5,7.5h-113.5ZM1470.5,194.5c-2.8,0-5.36-1.56-6.65-4.04l-29-55.73c-2.09-3.43-9.7-8.23-12.35-8.23h-21v60.5c0,4.14-3.36,7.5-7.5,7.5h-27c-4.14,0-7.5-3.36-7.5-7.5V38c0-4.14,3.36-7.5,7.5-7.5h97.5c3.08,0,12.72,3.25,12.81,3.29,13.09,4.89,23.21,15.39,27.79,28.8,4.87,14.28,3.08,29.84-4.91,42.69-6.09,9.79-14.52,14.73-22.87,18.27l29.42,60.15c1.14,2.32,1,5.07-.38,7.27-1.37,2.19-3.77,3.53-6.36,3.53h-29.5ZM1462.12,84.5c1.27-.63,3.29-3.33,3.46-4.68.06-1.45-1.32-4.87-2.46-6.32h-61.62v11h60.62ZM1236.5,194.5c-20.62,0-40.33-23.82-42.01-43.32-1.71-19.89-1.71-57.48,0-77.36,1.72-20.03,21.32-43.32,44.01-43.32h111.5c4.14,0,7.5,3.36,7.5,7.5v28c0,4.14-3.36,7.5-7.5,7.5h-110.15c-1.11.89-2.72,2.74-3.35,3.89v7.11h87.5c4.14,0,7.5,3.36,7.5,7.5v27c0,4.14-3.36,7.5-7.5,7.5h-87.5v21.52c.76,1.1,2.21,2.72,3.2,3.47,5.78.32,12.01.48,19,.48,10,0,20.35-.33,30.37-.64,10.11-.32,20.57-.65,30.78-.65,9.03,0,16.97.26,24.25.79,1.61.12,3,.41,4.21.66.87.18,1.62.34,2.21.38,3.94.27,6.99,3.54,6.99,7.48v27c0,4.14-3.36,7.5-7.5,7.5h-113.5ZM1158,194.5c-4.14,0-7.5-3.36-7.5-7.5v-60.5h-79v60.5c0,4.14-3.36,7.5-7.5,7.5h-27c-4.14,0-7.5-3.36-7.5-7.5V38c0-4.14,3.36-7.5,7.5-7.5h27c4.14,0,7.5,3.36,7.5,7.5v46.5h79v-46.5c0-4.14,3.36-7.5,7.5-7.5h27c4.14,0,7.5,3.36,7.5,7.5v149c0,4.14-3.36,7.5-7.5,7.5h-27ZM885.5,194.5c-4.29,0-9-4.71-9-9V39.5c0-4.29,4.71-9,9-9h96c13.68,0,26.37,7.23,34.81,19.83,9.64,14.38,11.86,32.47,5.81,47.2-4.79,11.67-22.28,28.97-36.62,28.97h-66v60.5c0,4.14-3.36,7.5-7.5,7.5h-26.5ZM979.46,84.5c.98-.7,2.23-1.65,2.8-2.16,1.66-2.16,1.73-4.85.17-6.84-.55-.49-1.78-1.39-2.7-2h-60.23v11h59.96Z"/>
    <path d="M795.78,37.03c12.65,0,24.92.42,31.76.93,22.89,1.72,40.72,18.44,39.46,42.04h-27c-.24,0-.15-3.33-.69-4.8-2.19-5.96-5.3-8.63-11.76-9.25-4.66-.45-9.51-.61-14.47-.61-12.93,0-26.56,1.11-39.4,1.11-3.03,0-6.03-.06-8.95-.22-14.53,3.18-13.74,23.38.21,26.32,4.84,1.02,10.03,1.36,15.41,1.36,10.69,0,22.15-1.34,33.22-1.34,10.24,0,20.14,1.15,28.79,5.57,37.6,19.23,31.14,76.26-9.58,87.14-7.1,1.9-21.88,2.53-35.74,2.53-10.13,0-19.78-.34-25.57-.77-25.59-1.92-44.84-22.37-44.46-48.04h26.5c2.2,2.1,1.36,5.43,2.45,8.55,1.62,4.67,7.96,10.24,12.78,11.22,4.08.83,13.91,1.13,24.25,1.13,11.79,0,24.24-.4,29.57-.87,22.27-1.97,23.81-34.37,1.5-38.59-4.45-.84-9.37-1.12-14.56-1.12-10.4,0-21.9,1.13-32.87,1.13-12.99,0-25.25-1.58-34.1-8.48-26.04-20.33-18.04-64.56,14.44-72.51,7.43-1.82,23.41-2.44,38.82-2.44M1666.5,38c.11,0,1.5,1.39,1.5,1.5v25c0,.11-1.39,1.5-1.5,1.5h-111c-1.39,0-8.5,7.1-8.5,8.5v17.5h94v27h-94v31.5c0,2.22,6.29,8.5,8.5,8.5h111c.11,0,1.5,1.39,1.5,1.5v26.5h-113.5c-13.41,0-29.34-15.53-33.22-27.78-4.35-13.73-3.39-63.44-2.32-79.77,1.22-18.74,16-41.45,36.55-41.45h111M1464.5,38c1.08,0,8.59,2.21,10.19,2.81,24.32,9.08,32.62,38.82,19.13,60.51-6.39,10.28-15.92,14.14-26.81,18.21l32.99,67.46h-29.5l-29.09-55.91c-2.99-5.18-12.97-12.09-18.91-12.09h-28.5v68h-27V38h97.5M1394,92h68.5c4.7,0,10.13-6.79,10.55-11.5.42-4.66-3.89-14.5-8.55-14.5h-70.5v26M1350,38v28h-111.5c-2.97,0-9.5,7.4-9.5,10.5v15.5h95v27h-95v30.5c0,1.95,6.17,9.45,9.37,9.45.06,0,.13,0,.19,0,6.63.39,13.35.53,20.14.53,20.22,0,40.96-1.29,61.15-1.29,8.01,0,15.93.2,23.7.77,2.24.16,4.25.89,6.46,1.04v27h-113.5c-16.69,0-33.17-20.63-34.54-36.46-1.68-19.48-1.68-56.59,0-76.07,1.48-17.16,18.61-36.46,36.54-36.46h111.5M1185,38v149h-27v-68h-94v68h-27V38h27v54h94v-54h27M981.5,38c26.47,0,43.39,33.04,33.68,56.68-3.85,9.38-19.13,24.32-29.68,24.32h-73.5v68h-26.5c-.11,0-1.5-1.39-1.5-1.5V39.5c0-.11,1.39-1.5,1.5-1.5h96M912,92h69.5c.6,0,5.57-3.7,6.35-4.65,4.11-4.93,4.35-11.92.16-16.86-.92-1.08-5.65-4.49-6.51-4.49h-69.5v26M396.5,38c.46,0,1.74,1.12,2.9,1.12.2,0,.41-.03.6-.12v148l-121-92v92h-27V39l121,92V38h23.5M485.99,38.24c41.06,0,74.35,33.29,74.35,74.35s-33.29,74.35-74.35,74.35-74.35-33.29-74.35-74.35,33.29-74.35,74.35-74.35M485.98,159.4c25.86,0,46.82-20.96,46.82-46.82s-20.96-46.82-46.82-46.82-46.82,20.96-46.82,46.82,20.96,46.82,46.82,46.82M640.93,38.25c41.06,0,74.35,33.29,74.35,74.35s-33.29,74.35-74.35,74.35-74.35-33.29-74.35-74.35,33.29-74.35,74.35-74.35M640.92,159.41c25.86,0,46.82-20.96,46.82-46.82s-20.96-46.82-46.82-46.82-46.82,20.96-46.82,46.82,20.96,46.82,46.82,46.82M795.78,22.03c-20.35,0-34.6.96-42.38,2.87-18.61,4.55-33.11,18.59-38.81,37.2-16.12-23.44-43.13-38.84-73.67-38.84-33.08,0-62.02,18.07-77.46,44.85-15.44-26.79-44.39-44.87-77.47-44.87-28.91,0-54.65,13.8-70.99,35.15v-19.39c0-5.04-2.53-9.74-6.74-12.52-1.77-1.17-3.73-1.93-5.75-2.27-1.48-.62-3.52-1.21-6.01-1.21h-23.5c-8.28,0-15,6.72-15,15v62.75l-96.92-73.69c-2.66-2.02-5.86-3.06-9.08-3.06-2.27,0-4.55.51-6.66,1.56-5.11,2.53-8.34,7.74-8.34,13.44v148c0,8.28,6.72,15,15,15h27c8.28,0,15-6.72,15-15v-61.75l96.92,73.69c2.66,2.02,5.86,3.06,9.08,3.06,2.27,0,4.55-.51,6.66-1.56,5.11-2.53,8.34-7.74,8.34-13.44v-20.22c16.34,21.36,42.08,35.15,70.99,35.15,33.08,0,62.02-18.07,77.46-44.85,15.44,26.79,44.39,44.87,77.47,44.87,31.29,0,58.87-16.17,74.84-40.58,8.17,22.45,28.85,38.7,54.58,40.63,6.72.5,16.95.82,26.7.82,18.73,0,32.06-1.02,39.62-3.04,12.79-3.42,23.82-10.59,31.91-20.75.15-.19.3-.37.44-.56v7.04c0,6.29,3.71,10,5.1,11.4,1.4,1.4,5.1,5.1,11.4,5.1h26.5c8.28,0,15-6.72,15-15v-53h58.5c13.4,0,27.67-10.85,36.5-22.04v75.04c0,8.28,6.72,15,15,15h27c8.28,0,15-6.72,15-15v-53h64v53c0,8.28,6.72,15,15,15h27c8.28,0,15-6.72,15-15v-5.01c.74.92,1.51,1.82,2.3,2.71,9.97,11.16,22.11,17.3,34.2,17.3h113.5c3.16,0,6.08-.97,8.5-2.64,2.42,1.66,5.34,2.64,8.5,2.64h27c8.28,0,15-6.72,15-15v-53h12.77c1.88.64,5.44,3.11,6.67,4.65l28.76,55.27c2.58,4.96,7.71,8.08,13.31,8.08h29.5c5.18,0,9.98-2.67,12.72-7.06,2.74-4.39,3.02-9.88.75-14.53l-26.1-53.36c5.53-3.02,10.99-7.03,15.68-12.86,0,18.85.82,39.8,3.92,49.57,2.75,8.69,9.1,17.88,17.42,25.21,9.55,8.41,20.24,13.04,30.1,13.04h113.5c8.28,0,15-6.72,15-15v-26.5c0-6.29-3.71-10-5.1-11.4-1.4-1.4-5.1-5.1-11.4-5.1h-104.5v-10h79c8.28,0,15-6.72,15-15v-27c0-4.35-1.85-8.26-4.8-11h15.3c6.29,0,10-3.71,11.4-5.1,1.4-1.4,5.1-5.1,5.1-11.4v-25c0-6.29-3.71-10-5.1-11.4-1.4-1.4-5.1-5.1-11.4-5.1h-111c-20.25,0-36.73,14.32-45.27,32.18-5.95-13.15-16.76-23.36-30.29-28.42-.1-.04-10.55-3.76-15.44-3.76h-97.5c-3.16,0-6.08.97-8.5,2.64-2.42-1.66-5.34-2.64-8.5-2.64h-111.5c-12.55,0-25.07,5.82-35.24,16.4-1.14,1.18-2.22,2.4-3.26,3.66v-5.05c0-8.28-6.72-15-15-15h-27c-8.28,0-15,6.72-15,15v39h-64v-39c0-8.28-6.72-15-15-15h-27c-8.28,0-15,6.72-15,15v7.36c-9.86-14.22-24.57-22.36-40.5-22.36h-96c-6.29,0-10,3.71-11.4,5.1-1.4,1.4-5.1,5.1-5.1,11.4v2.89c-.62-.71-1.27-1.41-1.93-2.09-9.78-10.03-23.42-16.18-38.41-17.3-7.87-.59-20.78-.97-32.88-.97h0ZM485.98,144.4c-17.55,0-31.82-14.27-31.82-31.82s14.27-31.82,31.82-31.82,31.82,14.27,31.82,31.82-14.27,31.82-31.82,31.82h0ZM640.92,144.41c-17.55,0-31.82-14.28-31.82-31.82s14.28-31.82,31.82-31.82,31.82,14.28,31.82,31.82-14.28,31.82-31.82,31.82h0ZM1334.2,81h15.8c.68,0,1.35-.05,2-.13v64.27c-.31-.04-.62-.07-.94-.1-.22-.03-.8-.15-1.22-.24-1.3-.27-3.09-.65-5.21-.8-7.46-.55-15.57-.81-24.79-.81-10.32,0-20.84.33-31.02.65-9.96.31-20.25.64-30.13.64-5.31,0-10.15-.09-14.69-.28v-10.2h80c8.28,0,15-6.72,15-15v-27c0-4.35-1.85-8.26-4.8-11h0ZM863.64,95h3.36c.68,0,1.35-.05,2-.13v5.98c-1.65-2.06-3.44-4.02-5.36-5.85h0ZM729.55,124c.13-1.02.24-2.05.34-3.08,1.09,1,2.22,1.96,3.4,2.88.09.07.17.13.26.2h-4ZM776.62,135.46c5.94,0,11.88-.3,17.63-.59,5.39-.27,10.49-.53,15.24-.53s8.71.28,11.77.86c3.96.75,3.81,3.8,3.76,4.8-.19,3.79-2.91,4.03-3.8,4.11-4.51.4-16.3.81-28.25.81s-18.61-.44-20.76-.75c-.61-.36-1.49-1.11-2.02-1.72,0-.04,0-.07-.01-.11-.18-1.63-.47-4.23-1.57-7.08,2.77.15,5.46.2,8.02.2h0Z"/>
  </g>
  <g>
    <path class="st0" d="M1863,394.5c-2.89,0-5.53-1.66-6.77-4.27l-20.7-43.42c-1.05-.9-3.29-2.45-4.71-3.31h-13.32v42c0,4.29-4.71,9-9,9h-17c-1.23,0-2.5-.39-3.68-1.04-1.12.66-2.42,1.04-3.82,1.04h-80.5c-11.37,0-20.84-8.64-26.48-18.65-1.33,2.01-2.85,3.94-4.55,5.76-3.68,3.94-16.93,12.89-24.97,12.89h-75.5c-1.26,0-2.46-.31-3.5-.87-1.04.55-2.24.87-3.5.87h-19c-4.14,0-7.5-3.36-7.5-7.5v-54.67l-21.4,16.63c-1.35,1.05-2.98,1.58-4.6,1.58s-3.25-.53-4.6-1.58l-21.4-16.63v54.67c0,4.14-3.36,7.5-7.5,7.5h-19c-.17,0-.34,0-.5-.02-.17.01-.33.02-.5.02h-20.5c-2.86,0-5.47-1.62-6.73-4.19l-26.27-53.35-26.27,53.35c-1.26,2.56-3.87,4.19-6.73,4.19h-20.5c-.17,0-.33,0-.5-.02-.17.01-.33.02-.5.02h-19c-4.14,0-7.5-3.36-7.5-7.5v-43.5h-52v43.5c0,4.14-3.36,7.5-7.5,7.5h-19c-1.07,0-2.08-.22-3-.62-.92.4-1.93.62-3,.62h-57.5c-8.93,0-25.13-8.3-30.62-12.64-16.57-13.09-25.5-34.11-23.88-56.22,1.56-21.36,13-40.16,30.59-50.31.14-.08,14.37-7.83,20.92-7.83h60.5c1.07,0,2.08.22,3,.62.92-.4,1.93-.62,3-.62h19c4.14,0,7.5,3.36,7.5,7.5v32.5h52v-32.5c0-4.14,3.36-7.5,7.5-7.5h19c4.14,0,7.5,3.36,7.5,7.5v81l40.23-84.21c1.25-2.61,3.88-4.27,6.77-4.27s5.52,1.66,6.77,4.27l40.23,84.21v-81c0-2.88,1.65-5.5,4.24-6.75,1.04-.5,2.15-.75,3.26-.75,1.66,0,3.31.55,4.67,1.63l47.99,38.14,47.66-38.12c1.36-1.08,3.01-1.64,4.69-1.64,1.1,0,2.21.24,3.25.74.08.04.17.08.25.13,1.05-.55,2.24-.87,3.5-.87h71.5c.38,0,.77.03,1.15.09,9.64,1.5,17.9,7.49,23.25,16.87,2.09,3.67,3.65,7.71,4.63,11.88.24-1.36.5-2.55.8-3.53,2.62-8.59,14.94-25.31,28.17-25.31h82.5c1.07,0,2.08.22,3,.62.92-.4,1.93-.62,3-.62h72.5c.42,0,.83.03,1.24.1,3.45.58,10.71,4.72,10.78,4.76,13.39,7.97,20.14,23.65,17.2,39.97-2.28,12.67-9.77,22.64-20.3,27.65l19.57,41.02c1.3,1.99,1.69,4.5.93,6.88-.87,2.75-4.06,6.62-8.42,6.62h-20.5ZM1782.5,358.5v-56h-75.47c-.65.86-1.26,2.82-1.6,5h59.57c4.14,0,7.5,3.36,7.5,7.5v21c0,4.14-3.36,7.5-7.5,7.5h-59.5v13.35c.37.52.86,1.14,1.31,1.65h75.69ZM1644.1,358.5c.87-.38,2.02-.9,2.49-1.14,3.32-2.08,3.77-6.75,2.29-10.01-.57-.87-2.23-2.75-3.42-3.85h-46.95v15h45.6ZM1238.5,358.5v-56h-53c-4.19,0-12.8,5.03-16.76,9.78-4.77,5.73-7.08,13.53-6.32,21.42.75,7.82,4.3,14.68,9.99,19.32,2.2,1.79,8.35,5.03,10.38,5.49h55.71ZM1856.69,307.5c.37-.22.76-.45,1.07-.64.42-.8.32-1.88.06-2.63-.24-.69-.71-1.43-1.29-1.72h-39.03v5h39.19ZM1638.76,307.5c.5-1.19.71-3.11.4-4.05-.61-.3-1.42-.67-2.06-.95h-38.6v5h40.26Z"/>
    <path d="M1862.5,275c1.37.23,6.67,2.91,8.19,3.81,22.82,13.57,17.09,51.82-9.7,56.7l23.58,49.45c.88.62-.95,2.04-1.07,2.04h-20.5l-21.15-44.35c-.87-1.66-8.44-6.65-9.35-6.65h-22.5v49.5c0,.11-1.39,1.5-1.5,1.5h-17c-.11,0-1.5-1.39-1.5-1.5v-110.5h72.5M1810,315h48.5c.27,0,4.03-2.15,4.55-2.72,5.17-5.71,1.81-15.97-5.55-17.28h-47.5v20M1784,275v20h-77.5c-8.04,0-9.67,14.13-8.5,20h67v21h-67v22.5c0,1.39,4.75,7.5,6.5,7.5h79.5v21h-80.5c-12.76,0-23.54-16.85-24.54-28.46-1.02-11.8-1.45-53.74,1.53-63.54,2.26-7.42,12.89-20,21-20h82.5M1643.5,275c15.99,2.48,24.19,20.81,22.5,35.5-.41,3.57-4.14,9.85-4.07,10.93.02.33,3.09,1.88,4.11,3.01,13.31,14.62,14.88,37.13.94,52.04-3.37,3.61-14.79,10.51-19.49,10.51h-75.5v-112h71.5M1591,315h49.5c5.57,0,9.05-12.74,3.47-17.47-.53-.45-5.17-2.53-5.47-2.53h-47.5v20M1591,366h54.5c.27,0,4.19-1.75,4.85-2.15,6.76-4.07,8.5-13.07,5.21-19.91-.91-1.89-6.35-7.94-8.06-7.94h-56.5v30M1565,275v112h-19v-70l-33.5,26.04-33.5-26.04v70h-19v-112l52.67,41.86,52.33-41.86M1351,275v112h-19v-51h-67v51h-19v-112h19v40h67v-40h19M1240,275v20h-54.5c-7.35,0-17.85,6.87-22.52,12.48-12.52,15.02-10.5,38.96,4.7,51.35,2.81,2.29,11.51,7.17,14.83,7.17h57.5v21h-57.5c-6.34,0-20.8-6.94-25.98-11.02-30.26-23.9-28.01-74.65,5.81-94.14,3.3-1.9,13.91-6.83,17.17-6.83h60.5M1405.5,275.02l53.5,111.98h-20.5l-33-67.01-33,67.01h-20.5l53.5-111.98M1565,260c-3.34,0-6.66,1.12-9.37,3.29l-42.99,34.39-43.31-34.42c-2.71-2.15-6.01-3.26-9.33-3.26-2.22,0-4.45.49-6.52,1.49-5.18,2.5-8.48,7.75-8.48,13.51v47.9l-25.97-54.35c-2.49-5.21-7.76-8.53-13.53-8.53s-11.04,3.32-13.53,8.53l-25.97,54.35v-47.9c0-8.28-6.72-15-15-15h-19c-8.28,0-15,6.72-15,15v25h-37v-25c0-8.28-6.72-15-15-15h-19c-1.03,0-2.03.1-3,.3-.97-.2-1.97-.3-3-.3h-60.5c-8.93,0-24.51,8.75-24.66,8.84-19.76,11.39-32.59,32.42-34.33,56.26-1.79,24.59,8.19,48.01,26.72,62.65,6.3,4.97,23.96,14.25,35.27,14.25h57.5c1.03,0,2.03-.1,3-.3.97.2,1.97.3,3,.3h19c8.28,0,15-6.72,15-15v-36h37v36c0,8.28,6.72,15,15,15h19c.17,0,.34,0,.5,0,.17,0,.33,0,.5,0h20.5c5.71,0,10.93-3.25,13.46-8.37l19.54-39.68,19.54,39.68c2.52,5.13,7.74,8.37,13.46,8.37h20.5c.17,0,.33,0,.5,0,.17,0,.33,0,.5,0h19c8.28,0,15-6.72,15-15v-39.34l9.29,7.22c2.71,2.1,5.96,3.16,9.21,3.16s6.5-1.05,9.21-3.16l9.29-7.22v39.34c0,8.28,6.72,15,15,15h19c1.2,0,2.38-.14,3.5-.41,1.12.27,2.3.41,3.5.41h75.5c1.79,0,7.25,0,17.6-5.83,2.26-1.27,7.49-4.39,11.39-7.99,7.63,8.93,17.15,13.82,27.01,13.82h80.5c1.29,0,2.54-.16,3.74-.47,1.13.29,2.39.47,3.76.47h17c6.29,0,10-3.71,11.4-5.1,1.4-1.4,5.1-5.1,5.1-11.4v-34.5h3.6c.32.22.63.44.92.65l19.93,41.81c2.49,5.22,7.76,8.54,13.54,8.54h20.5c7.76,0,13.7-5.97,15.57-11.86,1.4-4.41.77-9.06-1.52-12.81l-16.45-34.48c9.24-6.67,15.8-16.98,18-29.2,3.5-19.42-4.65-38.16-20.75-47.74-.08-.05-8.27-4.86-13.39-5.71-.82-.14-1.64-.21-2.47-.21h-72.5c-1.03,0-2.03.1-3,.3-.97-.2-1.97-.3-3-.3h-82.5c-11.65,0-22.12,8.89-28.73,18.06-6.51-9.87-15.99-16.18-26.97-17.88-.76-.12-1.53-.18-2.3-.18h-71.5c-1.21,0-2.38.14-3.51.41-1.15-.28-2.32-.41-3.49-.41h0ZM1185.63,310h45.37v41h-46.98c-1.97-.8-5.66-2.86-6.91-3.83-4.03-3.29-6.68-8.47-7.23-14.2-.57-5.9,1.11-11.69,4.61-15.89,2.57-3.09,8.69-6.76,11.13-7.08h0ZM1713,351h52c3.84,0,7.35-1.44,10-3.82v3.82h-62Z"/>
  </g>
  <g>
    <path class="st0" d="M719.5,394.5c-6.84,0-19.97-5.35-20.09-5.41-21.5-9.07-35.59-28.4-37.91-51.87v48.78c0,2.84-1.6,5.44-4.15,6.71-1.06.53-2.21.79-3.35.79-1.59,0-3.18-.51-4.5-1.5l-80-60v55c0,4.14-3.36,7.5-7.5,7.5h-20c-3.19,0-5.92-1.99-7-4.8-1.08,2.81-3.81,4.8-7,4.8h-21c-3.19,0-5.92-1.99-7-4.8-1.08,2.81-3.81,4.8-7,4.8h-61.5c-17.5,0-39-22.06-39-40v-79.5c0-4.14,3.36-7.5,7.5-7.5h21c4.14,0,7.5,3.36,7.5,7.5v78.55c.89,1.49,3.46,4.06,4.95,4.95h59.55c2.78,0,5.2,1.51,6.5,3.76v-87.26c0-4.14,3.36-7.5,7.5-7.5h21c3.19,0,5.92,1.99,7,4.8.67-1.73,1.96-3.19,3.69-4.03,1.05-.52,2.18-.77,3.31-.77,1.62,0,3.24.53,4.57,1.56l78.93,60.71v-54.77c0-4.14,3.36-7.5,7.5-7.5h21c4.14,0,7.5,3.36,7.5,7.5v49.18c1.94-19.4,12.53-36.89,29.22-47.34,3.48-2.18,17.99-9.34,24.78-9.34h65.5c4.14,0,7.5,3.36,7.5,7.5v20c0,4.14-3.36,7.5-7.5,7.5h-58.5c-6.37,0-12.94,3.33-18.04,9.13-5.76,6.56-8.73,15.24-7.76,22.64,1.31,10.01,12.81,24.23,21.8,24.23h34v-5h-27c-4.29,0-9-4.71-9-9v-19.5c0-4.14,3.36-7.5,7.5-7.5h55.5c4.29,0,9,4.71,9,9v59c0,4.29-4.71,9-9,9h-60ZM374.5,394.5c-2.79,0-5.35-1.55-6.65-4.03l-28.35-54.28-28.35,54.28c-1.29,2.48-3.85,4.03-6.65,4.03h-21.5c-1.65,0-3.22-.54-4.5-1.5-1.25.94-2.81,1.5-4.5,1.5h-85.5c-8.17,0-16.45-4.33-23.34-12.18-6-6.84-9.98-15.46-10.66-23.06v27.74c0,4.14-3.36,7.5-7.5,7.5h-20c-4.14,0-7.5-3.36-7.5-7.5v-43.5h-56v43.5c0,4.14-3.36,7.5-7.5,7.5h-19.5c-4.29,0-9-4.71-9-9v-110.5c0-4.14,3.36-7.5,7.5-7.5h21c4.14,0,7.5,3.36,7.5,7.5v32.5h56v-32.5c0-4.14,3.36-7.5,7.5-7.5h20c4.14,0,7.5,3.36,7.5,7.5v31.16c.41-5.18.99-9.52,1.8-12.27,2.65-9.06,16.09-26.39,29.2-26.39h88.5c4.14,0,7.5,3.36,7.5,7.5v20c0,4.14-3.36,7.5-7.5,7.5h-81.09c-.73.32-1.68.76-2.33,1.08-.25.78-.25,2.43-.2,3.92h63.62c4.14,0,7.5,3.36,7.5,7.5v21c0,4.14-3.36,7.5-7.5,7.5h-63.5v13.83c.36.39.78.81,1.17,1.17h82.33c4.14,0,7.5,3.36,7.5,7.5v7.32l51.3-101.68c1.27-2.53,3.86-4.12,6.7-4.12s5.42,1.59,6.7,4.12l56.5,111.98c1.17,2.33,1.06,5.09-.31,7.31-1.37,2.22-3.78,3.57-6.39,3.57h-21.5Z"/>
    <path d="M781,275v20h-58.5c-19.56,0-35.69,21.56-33.24,40.24,1.67,12.74,15.57,30.76,29.24,30.76h41.5v-20h-34.5c-.11,0-1.5-1.39-1.5-1.5v-19.5h55.5c.11,0,1.5,1.39,1.5,1.5v59c0,.11-1.39,1.5-1.5,1.5h-60c-3.85,0-13.3-3.18-17.18-4.82-41.37-17.45-45.38-75.34-7.62-98.98,3.91-2.45,16.66-8.2,20.8-8.2h65.5M654,275v111l-92-69v70h-20v-112l91,70v-70h21M528,275v112h-21v-112h21M421,275v79.5c0,3.48,8.01,11.5,11.5,11.5h60.5v21h-61.5c-13.82,0-31.5-18.94-31.5-32.5v-79.5h21M274,275v20h-82.5c-.3,0-4.88,2.07-5.48,2.52-4.99,3.73-2.44,12.01-3.02,17.48h71v21h-71v23.5c0,1.27,5.22,6.5,6.5,6.5h84.5v21h-85.5c-12.88,0-25.47-16.17-26.54-28.46-1.04-12.03-1.45-52.33,1.53-62.54,2.27-7.77,13.76-21,22-21h88.5M147,275v112h-20v-51H56v51h-19.5c-.11,0-1.5-1.39-1.5-1.5v-110.5h21v40h71v-40h20M339.5,275.02l56.5,111.98h-21.5l-35-67.01-35,67.01h-21.5l56.5-111.98M542,260c-2.26,0-4.52.51-6.62,1.54-.12.06-.25.12-.37.19-2.09-1.11-4.47-1.73-7-1.73h-21c-8.28,0-15,6.72-15,15v76h-55.9s-.07-.07-.1-.1v-75.9c0-8.28-6.72-15-15-15h-21c-8.28,0-15,6.72-15,15v56.9l-32.11-63.64c-2.55-5.05-7.73-8.24-13.39-8.24s-10.84,3.19-13.39,8.24l-43.22,85.65c-2.49-1.83-5.56-2.92-8.89-2.92h-76,56c8.28,0,15-6.72,15-15v-21c0-1.75-.3-3.44-.85-5h5.85c8.28,0,15-6.72,15-15v-20c0-8.28-6.72-15-15-15h-88.5c-8.97,0-17.33,5.26-23.82,11.9-1.43-6.8-7.46-11.9-14.68-11.9h-20c-8.28,0-15,6.72-15,15v25h-41v-25c0-8.28-6.72-15-15-15h-21c-8.28,0-15,6.72-15,15v110.5c0,6.29,3.71,10,5.1,11.4,1.4,1.4,5.1,5.1,11.4,5.1h19.5c8.28,0,15-6.72,15-15v-36h41v36c0,8.28,6.72,15,15,15h20c7.38,0,13.52-5.33,14.77-12.35,7.32,7.34,16.71,12.35,26.73,12.35h85.5c1.57,0,3.08-.24,4.51-.69,1.43.45,2.95.69,4.49.69h21.5c5.59,0,10.71-3.1,13.3-8.06l21.7-41.55,21.7,41.55c2.59,4.95,7.71,8.06,13.3,8.06h21.5c5.21,0,10.04-2.7,12.77-7.14.12-.2.24-.4.35-.61,7.28,5,15.06,7.74,22.37,7.74h61.5c2.53,0,4.91-.63,7-1.73,2.09,1.1,4.47,1.73,7,1.73h21c2.53,0,4.91-.63,7-1.73,2.09,1.1,4.47,1.73,7,1.73h20c8.28,0,15-6.72,15-15v-40l68,51c2.65,1.98,5.81,3,9,3,2.29,0,4.58-.52,6.71-1.58,5.08-2.54,8.29-7.73,8.29-13.42v-10.76c7.19,9.04,16.61,16.17,27.49,20.76.14.06,14.46,6,23.01,6h60c6.29,0,10-3.71,11.4-5.1,1.4-1.4,5.1-5.1,5.1-11.4v-59c0-6.29-3.71-10-5.1-11.4-1.4-1.4-5.1-5.1-11.4-5.1h-55.5c-8.28,0-15,6.72-15,15v18.48c-2.92-3.88-4.56-7.85-4.86-10.19-.69-5.24,1.65-11.8,5.97-16.71,3.67-4.18,8.19-6.58,12.4-6.58h58.5c8.28,0,15-6.72,15-15v-20c0-8.28-6.72-15-15-15h-65.5c-2.72,0-7.02.49-16.25,4.33-3.69,1.53-9.18,4.06-12.51,6.15-6.89,4.31-12.85,9.7-17.74,15.86v-11.35c0-8.28-6.72-15-15-15h-21c-8.28,0-15,6.72-15,15v39.54l-66.85-51.43c-2.67-2.06-5.9-3.11-9.15-3.11h0Z"/>
  </g>
  <g>
    <path class="st0" d="M958.98,515.5c-2.69-.01-5.17-1.47-6.5-3.81l-47.55-84.19h-97.43c-.6,0-1.2-.07-1.79-.22-3.01-.74-6.42-3.86-6.94-7.79-.29-2.21.35-4.37,1.69-6.03l47.97-82.46c-.35-.39-.66-.82-.93-1.29l-48.02-83.99c-1.33-2.32-1.32-5.17.02-7.49,1.34-2.31,3.81-3.74,6.49-3.74h98c.12,0,.25,0,.37,0l48.64-84.24c1.34-2.32,3.81-3.75,6.49-3.75h0c2.67,0,5.15,1.42,6.49,3.74l48.88,84.25s98.14,0,98.14,0c2.68,0,5.16,1.43,6.5,3.75,1.34,2.32,1.34,5.18,0,7.5l-48.51,84c-.19.33-.41.65-.65.95l48.36,82.88c1.54,2.04,2.04,4.73,1.24,7.28-.87,2.76-4.05,6.64-8.43,6.64h-97.44l-48.55,84.24c-1.34,2.32-3.82,3.75-6.5,3.75h-.03ZM967.01,445.86c.52-.95,1.03-1.88,1.51-2.76,2.99-5.46,6.08-11.09,8.71-15.6h-13.71l3.49,18.36ZM1043.72,394.5l-6.96-5.01-2.93,5.01h9.89ZM997.93,394.5l13.01-22.82c-2.78-1.5-6.16-3.96-10.95-7.52-3.04-2.25-7.79-5.78-10.38-7.22-3.15,1.27-9.1,3.96-13.71,6.03-12.53,5.65-18.93,8.41-22.79,9.67l4.15,21.85h40.68ZM924.58,394.5l-1.66-8.45c-.5.2-1.03.41-1.6.62-1.14.44-2.16.81-3.08,1.12l3.83,6.71h2.51ZM857.85,378.55c6.63-2.92,11.22-4.86,14.52-6.11l-5.39-9.53-9.13,15.64ZM885.71,330.81c.1.15.2.31.29.47l16.01,28.06,14.45-6.14-4.19-21.34-19.29-13.51-7.27,12.46ZM1026.8,343.86l7.05-12.37-17.07-29.4-14.12,6.03,4.1,21.1,20.04,14.64ZM946.93,340.11l26.34-11.43-1.46-7.37-26.32,11.25,1.43,7.54ZM917.07,295.77c4.13,2.83,8.27,5.65,12.39,8.48,12.03-5.27,24.23-10.44,36.28-15.49-.78-2.72-1.38-5.99-2.06-9.69-.64-3.51-1.5-8.78-1.92-12.57h-38.76l-13.91,23.81c2.67,1.83,5.33,3.65,7.98,5.46ZM1051.7,298.77l8.51-15.24-13.93,5.96,5.42,9.29ZM996.23,276c1.48-.62,2.96-1.24,4.44-1.87l-4.37-7.63c-.1,0-.2,0-.3,0h-1.66l1.89,9.5ZM874.91,266.5c2.59,1.85,5.19,3.7,7.79,5.54l3.2-5.54h-10.99ZM955.47,234.53l-3.48-17.64-10.27,17.58,13.76.06Z"/>
    <path d="M959.5,154.02l65.36,112.65c.52,1.95-.24,1.04-1.14,1.55-2.08,1.18-11.1,5.48-14.03,5.48-.3,0-.54-.05-.7-.15l-29.5-51.55c-.55-.67-.97-1.08-1.24-1.08-.28,0-.38.46-.25,1.55.62,5.27,3.3,10.97,3,16.52h-17l-8.49-42.99-53.48,91.52-1.65,1.39-13.24-9.55,72.37-125.35M934.44,241.94l51.9.21c1.41.47,9.19,14.15,9.66,16.84h-73l8.49-16.01,2.96-1.04M1113,242h0M1113,242l-48.51,84c-.16.04-.31.06-.45.06-1,0-1.36-.96-1.89-1.7-1.05-1.44-8.09-13.86-7.95-14.68l23.29-41.69-140.48,60.05,26,136.96c.47.11.82.16,1.08.16,1.01,0,.7-.76,1.21-1.42,3.89-5.03,21.84-40.74,24.21-40.74h18.5l-48.99,85-48.01-85h20l9.01,17.99.88-2.37-21.84-111.17-70.56-49.44-1.48.48c1.97,6.55,17.38,26.28,17.78,31.18.07.87-7.29,14.16-8.32,15.29-.64.7-.9,1.14-1.67,1.14-.21,0-.46-.03-.77-.1l-48.02-83.99h98l-9,17h-43c24.87,18.74,50.96,36.12,76.65,53.79,38.44-16.98,77.74-32.29,116.02-49.62,2.35-1.07,5.95-2.02,7.33-4.17h-28l-9-17h98M986,263l3.87,19.43-15.37,7.55c-1.79-.1-5.55-23.6-5.49-26.98h17M1037.33,289.13s.05,0,.07,0l75.17,128.83c.88.61-.94,2.04-1.07,2.04h-152c-3.07-5.09-3.12-12.16-4.5-18h112l-29.9-21.49,9.4-14.39,26.51,17.88-50.88-87.63c-.54-1.91.27-1.09,1.15-1.59,1.61-.9,12.74-5.64,14.05-5.64M874.56,301.01c2.87,1.99,14.15,7.87,13.29,11.25l-46.84,80.26c-.23.98.05,1.3.53,1.3.79,0,2.13-.84,2.7-1.07,5.19-2.05,32.34-14.84,35.93-14.84.08,0,.14,0,.19.02.98,2.77,8.95,13,7.55,14.99-.45.64-12.45,4.93-14.6,5.91-1.52.7-4.79,1.65-5.33,3.17h61.5c1.52,3.52,4.07,12.13,4.11,15.94,0,.85-.4,2.06-1.11,2.06h-125c-.25-.06-1.95-1.47-1.01-1.98l68.07-117.01M994.25,307.77c.34,0,.6.07.75.23l4.96,25.55,25.94,18.95-8.53,13.45c-.1.03-.21.04-.33.04-4.18,0-22.15-16.71-27.47-16.98-5.15,1.33-37.07,17.08-41.19,17.08-.18,0-.3-.03-.37-.09l-2.94-16.91,35.99-15.61.63-.92-3.65-18.49c2.64-.14,13.04-6.31,16.22-6.31M1040.49,334.99c1.28,3.17,9.91,15.05,9.37,17.26l-27.36,46.75h-18.5l36.49-64.01M879.49,334.99l36.51,64.01h-20l-26.53-46.92,2.36-5.75,7.65-11.33M921.99,359c.28,2.88,3.16,12.03,3.16,16.16,0-4.13-2.88-13.28-3.16-16.16l-18.94,8.05s-.02.06-.02.12c0-.05,0-.09.02-.12l18.94-8.05M903.02,367.17c0,1.5,6.42,14.28,7.1,14.71.11.07.29.1.54.1,2.82,0,13.75-4.45,14.18-5.13.22-.35.32-.93.31-1.68,0,.75-.09,1.33-.31,1.68-.43.68-11.36,5.13-14.18,5.13-.24,0-.42-.03-.54-.1-.67-.43-7.1-13.21-7.1-14.71M1008,423h0M959.5,139.02h-.02c-5.35,0-10.3,2.86-12.97,7.5l-46.47,80.48h-94.04c-5.35,0-10.29,2.85-12.97,7.47-2.68,4.63-2.7,10.33-.05,14.97l46.7,81.69-45.42,78.07c-2.35,3.15-3.45,7.14-2.92,11.24.97,7.47,7.05,12.75,12.56,14.12,1.18.29,2.39.44,3.6.44h93.05l45.4,80.37c2.65,4.69,7.61,7.6,13,7.62.02,0,.04,0,.07,0,5.36,0,10.32-2.86,13-7.51l46.39-80.49h93.1c7.78,0,13.73-5.99,15.58-11.9,1.5-4.77.63-9.79-2.13-13.68l-45.9-78.66,46.77-80.97c1.38-2.27,2.18-4.94,2.18-7.79,0-8.28-6.71-15-15-15h-93.82l-46.71-80.51c-2.68-4.63-7.63-7.47-12.97-7.47h0ZM1113,257h0,0ZM927.3,274h27.91c.49,3.17.98,5.83,1.09,6.42.25,1.37.5,2.65.75,3.85-8.91,3.75-17.88,7.56-26.78,11.43-2.98-2.04-5.96-4.08-8.95-6.12-.74-.51-1.49-1.02-2.23-1.53l8.22-14.06h0ZM1011.18,312.64l2.45-1.05,11.57,19.93-.75,1.32-10.88-7.95-2.38-12.26h0ZM894.38,330.83l.97-1.66,10.14,7.1,2.44,12.41-2.71,1.15-10.84-19h0ZM961.65,377.44c4.17-1.72,9.69-4.17,17.34-7.62,3.12-1.41,6.91-3.12,9.92-4.43,2.16,1.49,4.77,3.42,6.62,4.8,1.94,1.44,3.72,2.76,5.38,3.94l-7.34,12.87h-30.11l-1.82-9.56h0Z"/>
  </g>
</svg>