<svg version="1.0" xmlns="http://www.w3.org/2000/svg" width="auto" height="1096.000000pt" viewBox="0 0 3834.000000 1096.000000" preserveAspectRatio="xMidYMid meet" class="h-6" style="
    width: auto;
">

<g transform="translate(0.000000,1096.000000) scale(0.100000,-0.100000)" fill="#000000" stroke="none">
<path d="M7463 10217 c-3 -5 3 -17 12 -27 16 -18 36 -20 254 -22 l236 -3 -3
-925 c-1 -509 1 -1162 5 -1451 8 -500 9 -528 27 -548 15 -16 21 -18 28 -9 4 7
8 115 8 239 0 124 3 308 7 408 l6 182 51 -103 c243 -495 712 -826 1239 -878
176 -17 395 19 603 101 58 23 104 42 102 44 -2 2 -34 -4 -73 -13 -113 -26
-431 -22 -561 6 -325 70 -575 210 -805 449 -434 452 -536 1133 -259 1718 42
88 137 238 191 300 l34 40 -55 -45 c-173 -143 -317 -327 -417 -535 l-48 -100
-6 135 c-4 74 -7 334 -8 577 -1 410 -2 443 -18 452 -22 11 -543 19 -550 8z"></path>
<path d="M15255 10220 c-94 -10 -176 -32 -258 -69 -91 -41 -193 -110 -209
-141 -6 -14 -21 -36 -33 -50 -11 -14 3 -4 32 22 141 129 335 208 472 192 43
-4 52 -3 46 8 -6 10 -5 11 6 1 10 -10 155 -13 651 -13 543 0 650 -2 716 -16
239 -49 448 -213 552 -435 37 -80 70 -207 70 -270 0 -26 5 -51 11 -54 5 -4 14
-18 19 -31 5 -13 17 -24 26 -24 15 0 16 12 11 113 -3 76 -12 133 -27 177 -73
218 -228 400 -425 500 -124 63 -201 80 -420 90 -225 11 -1140 11 -1240 0z"></path>
<path d="M20735 10220 c-4 -6 1 -20 11 -31 16 -18 32 -19 257 -19 l240 0 -5
-522 c-4 -288 -4 -529 -1 -535 4 -10 205 -13 959 -13 530 0 954 4 954 9 0 4
-9 20 -20 34 -19 24 -20 40 -20 456 l0 431 -94 0 c-77 0 -98 -3 -117 -19 l-24
-19 -3 -416 -3 -416 -784 0 -785 0 0 519 c0 403 -3 521 -12 529 -20 15 -544
27 -553 12z"></path>
<path d="M23162 10222 c-11 -8 -9 -14 9 -31 22 -20 32 -21 256 -21 l233 0 0
-1453 0 -1454 25 -23 c23 -22 25 -22 32 -4 12 29 10 2961 -2 2972 -13 13 -536
26 -553 14z"></path>
<path d="M24741 10219 c-93 -11 -195 -42 -282 -85 -73 -36 -196 -130 -191
-146 1 -6 -3 -18 -10 -27 -7 -9 14 8 46 37 71 64 134 102 241 143 67 27 94 32
167 32 60 0 85 4 81 11 -3 6 0 5 8 -1 10 -10 241 -13 1086 -13 l1073 0 0 -238
c0 -199 3 -241 16 -260 8 -12 12 -22 8 -22 -3 0 -1 -7 6 -15 10 -12 10 -15 0
-15 -8 0 -11 -3 -8 -6 4 -3 15 -1 26 5 17 9 21 7 27 -17 11 -40 18 -1738 8
-1932 l-8 -165 -5 145 -5 145 -1125 5 -1125 5 -41 22 c-52 28 -111 95 -124
142 -11 41 -13 186 -3 349 l6 112 763 0 763 0 20 26 c12 15 21 40 21 55 l0 29
-785 0 c-675 0 -786 2 -791 14 -6 17 -53 50 -60 43 -3 -3 -5 -141 -4 -308 0
-345 4 -367 72 -444 22 -25 59 -56 82 -68 l41 -22 1113 -3 1112 -2 0 -245 c0
-152 4 -246 10 -250 6 -3 10 -14 10 -23 0 -9 4 -23 9 -31 8 -12 12 -12 24 -2
13 10 18 4 31 -43 11 -36 24 -60 39 -68 14 -8 80 -14 185 -16 262 -6 312 7
312 83 l0 35 -134 0 c-109 0 -138 3 -150 16 -14 14 -16 156 -16 1420 l0 1404
-93 0 c-107 0 -123 -9 -144 -83 -10 -37 -11 -26 -12 99 -1 104 -5 145 -15 160
-14 19 -38 19 -1108 21 -612 1 -1126 -3 -1167 -8z"></path>
<path d="M27335 10219 c-4 -5 1 -19 10 -29 17 -19 47 -20 999 -22 1107 -4
1019 3 1196 -85 81 -40 110 -62 190 -143 106 -105 158 -191 202 -330 20 -64
23 -96 23 -220 0 -160 -16 -231 -77 -355 -71 -142 -255 -336 -365 -387 -35
-15 -69 -28 -77 -28 -8 0 -18 -5 -22 -12 -11 -18 55 -3 122 27 183 83 351 253
431 433 40 90 63 206 63 317 0 304 -178 604 -438 739 -138 70 -207 86 -427 96
-284 13 -1822 13 -1830 -1z"></path>
<path d="M31090 10219 c-99 -12 -198 -42 -290 -90 -81 -42 -177 -115 -172
-132 2 -5 -7 -21 -20 -35 -13 -15 8 2 47 37 124 112 314 189 436 176 49 -5 59
-4 53 7 -5 10 -4 11 7 1 10 -10 241 -13 1086 -13 l1073 0 0 -239 c0 -240 0
-240 24 -268 20 -22 26 -25 30 -13 4 8 5 139 4 290 l-3 275 -165 6 c-253 9
-2025 8 -2110 -2z"></path>
<path d="M9437 10200 c-134 -24 -261 -67 -393 -130 -98 -47 -284 -164 -284
-178 0 -4 -14 -16 -31 -26 -18 -11 -28 -23 -25 -32 3 -8 0 -14 -7 -14 -7 0
-27 -18 -45 -40 -18 -22 -30 -40 -27 -40 4 0 39 30 78 66 137 126 341 246 515
304 102 34 246 64 267 56 8 -3 17 0 21 6 4 7 9 6 15 -3 5 -9 9 -10 9 -3 0 8
13 10 36 7 24 -3 39 0 45 9 6 9 9 10 9 1 0 -7 9 -13 20 -13 11 0 20 6 20 13 0
8 3 9 8 1 4 -6 57 -14 122 -17 607 -34 1138 -457 1308 -1042 105 -359 69 -755
-99 -1088 -17 -34 -53 -97 -80 -140 -27 -43 -49 -83 -49 -88 0 -5 -4 -9 -10
-9 -5 0 -17 -15 -26 -32 -16 -32 -41 -60 -137 -155 -119 -117 -354 -257 -521
-309 -47 -14 -86 -30 -86 -35 0 -11 -6 -12 75 11 38 11 78 17 88 14 11 -4 17
-1 15 8 -2 8 8 13 27 14 16 1 31 6 33 13 2 6 10 11 18 11 8 0 14 5 14 10 0 6
7 10 15 10 8 0 31 9 52 21 170 94 310 211 446 371 73 86 188 250 221 316 9 18
21 30 27 26 6 -3 32 -53 59 -110 237 -506 715 -851 1250 -904 179 -17 399 20
608 102 56 23 101 42 100 44 -2 1 -35 -5 -73 -14 -112 -25 -430 -22 -561 6
-344 74 -612 230 -847 491 -208 232 -337 534 -368 865 -33 359 79 763 293
1047 38 51 61 86 51 78 -162 -126 -316 -313 -416 -503 -29 -54 -38 -65 -43
-50 -28 76 -52 132 -96 219 -163 322 -394 555 -703 705 -116 57 -190 83 -335
117 -150 35 -445 42 -603 13z"></path>
<path d="M12537 10200 c-130 -24 -259 -66 -387 -126 -157 -75 -371 -228 -355
-255 4 -5 -3 -9 -13 -9 -11 0 -22 -8 -26 -17 -3 -10 -9 -25 -13 -33 -3 -8 24
13 61 47 245 224 597 371 870 363 16 0 33 5 38 12 6 10 8 10 8 1 0 -7 9 -13
20 -13 11 0 20 6 20 13 0 8 3 9 8 1 4 -6 57 -14 122 -17 456 -26 884 -277
1135 -665 59 -92 125 -232 159 -337 124 -383 82 -832 -111 -1170 -25 -44 -54
-96 -65 -115 -11 -19 -26 -42 -34 -51 -8 -8 -14 -21 -14 -27 0 -6 -6 -15 -14
-19 -7 -4 -20 -22 -29 -39 -25 -49 -188 -197 -295 -268 -111 -74 -230 -133
-350 -172 -45 -15 -82 -31 -82 -36 0 -10 34 -3 108 23 28 9 52 13 52 8 0 -5 5
-9 10 -9 6 0 9 5 8 11 -2 6 5 13 15 15 9 2 23 5 30 7 25 6 125 61 202 111 187
122 353 289 493 496 79 117 141 288 193 530 19 86 23 137 23 282 l1 176 19
-31 c91 -155 157 -233 259 -308 90 -67 171 -108 277 -140 73 -22 89 -23 710
-29 617 -6 637 -7 701 -28 84 -28 148 -83 186 -160 26 -52 28 -68 31 -188 2
-72 -1 -147 -6 -167 -7 -26 -7 -37 1 -40 42 -15 -134 -22 -588 -22 l-520 0
-66 31 c-37 18 -84 48 -106 68 -53 47 -102 142 -110 208 -3 29 -12 63 -19 76
-14 22 -15 22 -277 22 -144 0 -268 -4 -274 -8 -10 -6 -9 -13 3 -30 15 -22 19
-22 254 -22 266 0 241 7 255 -75 10 -60 72 -169 122 -216 24 -22 74 -55 111
-72 l67 -32 540 -3 c456 -3 545 -1 570 11 17 8 55 26 85 41 57 26 130 81 130
96 0 12 -27 2 -62 -22 -47 -33 -41 -19 16 33 37 33 67 73 88 117 29 58 33 76
31 139 -3 178 -140 327 -324 353 -35 5 -324 10 -642 10 -632 0 -644 1 -787 60
-229 94 -414 309 -482 559 -31 110 -30 322 0 444 22 90 74 214 112 267 12 17
18 30 15 30 -21 0 -147 -116 -202 -185 -108 -136 -182 -322 -183 -457 l-1 -53
-23 55 c-91 218 -258 452 -425 597 -199 172 -417 282 -686 344 -135 31 -440
36 -588 9z m4028 -2350 c-3 -5 -12 -10 -18 -10 -7 0 -6 4 3 10 19 12 23 12 15
0z"></path>
<path d="M17680 10211 c0 -5 11 -16 25 -25 22 -14 116 -16 969 -16 1021 0
1004 1 1150 -54 133 -50 279 -168 362 -293 143 -215 171 -468 80 -713 -42
-115 -106 -207 -222 -325 -93 -93 -167 -143 -256 -169 -15 -5 -18 -9 -10 -13
18 -7 122 32 186 69 150 89 269 215 345 365 93 187 106 437 31 636 -78 208
-282 416 -481 491 -151 57 -133 56 -1199 56 -562 0 -980 -4 -980 -9z"></path>
<path d="M5050 10161 c15 -30 70 -78 232 -202 117 -90 510 -393 873 -674 729
-564 1238 -955 1272 -976 35 -21 37 -5 9 57 l-26 56 0 804 0 804 -93 0 c-85 0
-96 -2 -115 -23 l-22 -23 0 -692 c0 -381 -2 -692 -5 -692 -17 0 -359 258
-1177 887 -533 409 -936 713 -948 713 l-20 0 20 -39z"></path>
<path d="M17433 10006 l-28 -24 0 -1431 0 -1430 23 -23 c22 -23 27 -23 243
-23 l221 0 24 28 c14 16 24 41 24 58 l0 29 -138 0 c-94 0 -142 4 -150 12 -9 9
-12 338 -12 1420 l0 1408 -89 0 c-81 0 -93 -3 -118 -24z"></path>
<path d="M20472 10007 l-22 -23 0 -1430 c0 -1144 3 -1434 13 -1448 20 -27 79
-36 252 -36 228 0 265 13 265 87 l0 33 -134 0 c-109 0 -138 3 -150 16 -14 14
-16 156 -16 1420 l0 1404 -93 0 c-85 0 -96 -2 -115 -23z"></path>
<path d="M4755 9948 c-3 -13 -4 -654 -3 -1425 l3 -1402 23 -23 c22 -23 27 -23
242 -23 208 0 220 1 240 21 11 11 23 37 27 57 l6 37 -140 0 c-95 0 -143 4
-151 12 -9 9 -12 314 -12 1309 l0 1298 -104 80 c-57 45 -109 81 -115 81 -6 0
-13 -10 -16 -22z"></path>
<path d="M24069 9837 c-140 -116 -240 -270 -291 -452 -23 -80 -23 -81 -23
-825 0 -696 1 -750 19 -820 27 -107 60 -184 121 -275 122 -183 296 -310 507
-367 l83 -23 1087 0 c1085 0 1087 0 1108 21 11 11 23 37 27 57 l6 37 -986 0
c-1077 0 -1058 -1 -1213 59 -239 93 -419 296 -500 566 -17 55 -18 125 -22 835
-2 541 0 799 8 855 15 103 61 244 106 319 19 32 33 60 31 62 -2 2 -32 -20 -68
-49z"></path>
<path d="M30419 9837 c-139 -115 -230 -253 -286 -434 l-28 -88 -3 -710 c-3
-765 -1 -806 48 -952 87 -262 324 -480 600 -555 l85 -23 1087 0 c1085 0 1087
0 1108 21 11 11 23 37 27 57 l6 37 -986 0 c-1066 0 -1056 0 -1202 55 -108 40
-201 101 -285 184 -127 126 -203 269 -236 439 -21 112 -21 1555 1 1669 21 108
58 215 101 287 19 32 33 60 31 62 -2 2 -32 -20 -68 -49z"></path>
<path d="M18197 9653 c-4 -3 -7 -126 -7 -273 0 -193 3 -269 12 -278 9 -9 176
-12 691 -12 680 0 757 4 757 35 0 6 20 27 45 45 35 26 42 36 31 42 -10 6 -31
-2 -62 -22 -67 -42 -78 -38 -13 6 76 50 112 103 117 175 3 45 -1 68 -18 103
-26 55 -86 109 -139 124 -27 9 -225 12 -691 12 l-653 0 -23 25 c-24 26 -36 30
-47 18z m1213 -182 c46 -18 79 -48 96 -87 16 -37 29 -173 20 -208 l-6 -26
-630 0 -630 0 0 171 0 170 558 -3 c439 -3 564 -6 592 -17z"></path>
<path d="M27837 9503 c-11 -247 -9 -387 5 -401 16 -16 1312 -17 1386 -2 36 8
62 23 101 59 34 31 49 51 42 56 -7 4 -23 0 -36 -9 -39 -26 -37 -19 9 27 60 60
81 120 67 186 -19 90 -71 153 -150 179 -24 9 -221 12 -691 12 l-657 0 -23 25
c-43 45 -46 36 -53 -132z m1196 -23 c97 -24 137 -97 137 -250 0 -45 4 -70 13
-73 6 -3 -279 -6 -635 -6 l-648 -1 0 108 c0 59 3 138 7 175 l6 69 536 -5 c369
-3 551 -9 584 -17z"></path>
<path d="M15210 9617 c-139 -71 -165 -110 -165 -247 0 -68 5 -93 23 -127 33
-63 74 -106 129 -133 l48 -25 640 -6 c692 -6 673 -5 830 -64 243 -91 449 -303
536 -551 92 -265 51 -596 -102 -821 -16 -23 -29 -46 -29 -52 0 -5 -11 -23 -25
-38 -142 -156 -238 -219 -440 -288 -44 -16 8 -16 62 0 224 63 467 285 577 527
59 129 71 193 71 378 0 188 -12 250 -75 386 -122 264 -352 466 -627 551 l-88
27 -655 6 c-586 4 -658 7 -685 22 -38 21 -88 74 -109 115 -21 41 -21 144 0
184 l15 30 607 -3 607 -3 50 -25 c55 -28 89 -76 101 -144 3 -21 13 -54 20 -72
l14 -34 228 0 c262 0 272 3 272 71 l0 39 -127 0 c-71 0 -134 4 -142 9 -8 5
-18 35 -22 66 -10 76 -51 141 -113 180 l-49 30 -664 0 c-627 0 -662 1 -657 18
7 22 -1 21 -56 -6z"></path>
<path d="M24705 9619 c-22 -12 -51 -27 -66 -35 -81 -44 -99 -100 -99 -315 l0
-169 945 0 945 0 0 -245 0 -245 26 -16 c22 -15 27 -15 35 -3 15 23 7 535 -9
551 -10 10 -206 13 -949 16 l-936 4 6 139 c5 95 12 149 22 169 l16 30 1008 0
c1130 0 1039 -6 1060 73 l9 37 -989 -2 c-727 -2 -985 0 -974 8 8 6 15 14 15
18 0 12 -26 6 -65 -15z"></path>
<path d="M31055 9619 c-22 -12 -51 -27 -66 -35 -79 -42 -101 -101 -107 -286
-2 -80 -2 -158 2 -172 l6 -26 945 0 945 0 0 -245 0 -245 26 -16 c22 -15 27
-15 35 -3 15 23 7 535 -9 551 -10 10 -205 13 -948 16 l-936 4 4 137 c3 104 8
144 21 169 l18 32 1008 0 c1131 0 1045 -6 1058 73 l6 37 -987 -2 c-725 -2
-982 0 -971 8 8 6 15 14 15 18 0 12 -26 6 -65 -15z"></path>
<path d="M9376 9590 c-43 -16 -104 -44 -135 -61 -100 -57 -247 -167 -288 -216
-224 -269 -280 -636 -147 -960 118 -286 344 -487 649 -575 68 -19 103 -23 239
-23 119 0 160 3 164 13 2 6 8 10 12 7 5 -3 17 -1 27 4 10 6 43 18 73 27 130
40 269 120 366 211 28 27 41 41 30 32 -12 -9 -27 -14 -35 -11 -8 2 -19 -1 -25
-9 -17 -22 -125 -94 -191 -127 -351 -176 -768 -109 -1046 168 -254 254 -337
638 -209 967 61 157 186 312 325 403 l69 45 152 3 c234 5 381 -28 539 -121
176 -104 323 -292 383 -488 61 -200 52 -523 -20 -709 -24 -62 -73 -156 -96
-182 -27 -32 -1 -19 63 32 139 111 265 304 312 480 26 97 23 318 -6 425 -24
89 -84 221 -132 291 -130 190 -348 333 -578 379 -107 22 -302 16 -408 -12 -74
-20 -93 -13 -23 8 22 7 40 16 40 21 0 13 -20 9 -104 -22z"></path>
<path d="M12502 9600 c-87 -31 -158 -66 -233 -117 -40 -26 -82 -53 -93 -60
-53 -31 -132 -113 -185 -193 -164 -245 -202 -542 -107 -822 104 -305 337 -528
653 -625 80 -24 103 -27 252 -27 123 -1 165 2 169 12 2 6 8 10 12 7 5 -3 17
-1 27 4 10 6 43 17 73 27 119 36 272 126 375 220 22 20 33 32 23 25 -12 -9
-18 -9 -24 0 -5 8 -12 6 -23 -9 -21 -26 -139 -106 -210 -141 -381 -192 -845
-89 -1113 247 -68 86 -147 241 -173 342 -23 90 -31 272 -16 366 35 212 146
407 307 534 127 101 136 103 347 97 216 -6 267 -17 423 -92 94 -45 126 -68
200 -137 137 -130 223 -279 258 -449 36 -176 29 -431 -16 -577 -21 -70 -76
-187 -110 -234 -29 -42 -10 -34 60 26 275 234 383 554 302 894 -75 314 -331
577 -647 664 -103 29 -364 32 -458 6 -66 -19 -86 -16 -35 5 51 22 21 27 -38 7z
m-5 -36 c-3 -3 -12 -4 -19 -1 -8 3 -5 6 6 6 11 1 17 -2 13 -5z"></path>
<path d="M5547 9104 c-4 -4 -7 -420 -7 -924 l0 -917 23 -21 c13 -12 27 -19 30
-15 4 3 8 270 8 592 1 322 4 655 8 740 l6 153 935 -719 c514 -395 981 -754
1037 -797 56 -42 107 -75 113 -71 6 4 10 56 10 133 l-1 127 -1048 805 c-595
456 -1052 814 -1055 825 -9 33 -51 96 -59 89z"></path>
<path d="M29280 8592 c0 -11 104 -223 231 -473 389 -765 436 -853 468 -876 29
-22 41 -21 41 4 0 7 -123 255 -273 551 -150 295 -297 590 -327 655 -49 109
-56 119 -93 137 -49 24 -47 24 -47 2z"></path>
<path d="M18190 7936 l0 -663 22 -28 c47 -59 48 -42 48 596 l0 588 558 3 c543
4 559 4 630 26 41 12 101 37 135 55 l62 32 -689 3 -689 2 -23 25 c-13 14 -30
25 -39 25 -13 0 -15 -71 -15 -664z"></path>
<path d="M21236 8583 c-4 -9 -4 -309 0 -667 6 -634 7 -652 27 -673 11 -12 24
-20 28 -17 5 3 9 245 9 537 0 293 3 563 7 600 l6 69 711 -4 c804 -5 786 -3
821 -73 19 -38 20 -65 25 -637 l5 -597 23 -23 c22 -23 27 -23 242 -23 208 0
220 1 240 21 11 11 23 37 27 57 l6 37 -140 0 c-95 0 -143 4 -151 12 -9 9 -12
173 -12 675 l0 663 -898 0 -898 0 -29 30 c-33 34 -40 36 -49 13z"></path>
<path d="M27836 8583 c-4 -9 -4 -309 0 -667 6 -634 7 -652 27 -673 11 -12 24
-20 28 -17 5 3 9 245 9 537 0 293 3 563 7 601 l6 68 151 -7 c241 -11 326 -38
424 -138 45 -45 88 -123 331 -597 154 -300 293 -561 309 -580 l29 -35 202 -4
c112 -2 227 0 257 4 47 6 54 9 54 28 0 12 -9 37 -20 55 l-20 32 -128 0 c-110
0 -131 3 -144 18 -8 9 -142 267 -298 572 -268 523 -288 559 -345 616 -64 65
-137 108 -220 130 -36 10 -126 14 -316 14 l-265 0 -29 30 c-33 34 -40 36 -49
13z"></path>
<path d="M30884 8574 c-4 -15 -5 -155 -2 -313 5 -267 6 -290 27 -336 28 -65
83 -121 146 -151 l50 -24 1103 0 1102 0 0 -243 c0 -242 0 -244 23 -265 13 -12
27 -19 30 -15 6 6 10 560 5 565 -2 2 -507 5 -1123 8 l-1120 5 -40 22 c-52 28
-100 78 -119 125 -17 40 -22 275 -9 411 l6 67 763 0 763 0 20 26 c12 15 21 40
21 55 l0 29 -783 0 -783 0 -29 30 c-35 37 -43 37 -51 4z"></path>
<path d="M14283 7998 c-30 -14 -30 -49 1 -169 89 -351 362 -626 721 -726 l100
-28 545 0 c531 0 547 1 633 22 81 21 223 75 239 91 4 4 -246 6 -555 4 -385 -2
-587 0 -642 8 -368 53 -674 311 -784 658 -16 53 -33 109 -36 125 l-5 27 -98
-1 c-53 0 -107 -5 -119 -11z"></path>
<path d="M19180 7863 c5 -39 67 -152 310 -573 514 -888 563 -974 762 -1322
115 -202 200 -340 212 -344 25 -9 18 -13 -136 -79 -76 -32 -138 -62 -138 -66
0 -4 5 -11 12 -15 11 -7 -65 -53 -87 -53 -5 0 3 7 18 15 24 13 26 17 14 27
-14 12 -197 328 -197 341 0 7 -163 286 -265 454 -40 65 -80 150 -110 232 -44
122 -59 150 -72 136 -6 -6 55 -341 69 -371 4 -11 17 -35 28 -52 l20 -33 -195
0 -194 0 -10 38 c-5 20 -40 195 -77 387 -58 306 -65 359 -60 423 7 86 -2 90
-42 20 -15 -25 -39 -67 -54 -93 -16 -26 -28 -54 -28 -61 0 -8 -4 -14 -10 -14
-5 0 -18 -16 -27 -35 -14 -27 -147 -261 -198 -346 -21 -35 -100 -174 -108
-189 -4 -8 -18 -31 -30 -51 -12 -20 -42 -72 -67 -115 -25 -44 -49 -86 -55 -95
-5 -9 -21 -36 -35 -60 -13 -24 -29 -52 -35 -61 -5 -9 -25 -43 -44 -75 -18 -32
-105 -180 -192 -329 -88 -149 -159 -280 -159 -291 0 -11 6 -26 14 -32 12 -10
22 1 57 61 72 125 129 220 183 301 l51 78 350 -3 c386 -3 387 -3 419 -66 22
-43 76 -333 84 -449 l7 -103 -85 -36 c-47 -20 -109 -47 -138 -60 -29 -13 -54
-24 -57 -24 -2 0 -32 -13 -67 -29 -35 -16 -105 -48 -157 -70 l-93 -40 -157
103 c-86 57 -283 194 -438 305 -257 184 -283 205 -283 231 0 27 170 339 210
385 18 22 200 337 200 348 0 6 247 435 684 1190 163 282 166 288 152 316 -8
15 -22 33 -30 40 -19 16 37 107 -472 -775 l-417 -721 -201 -6 c-111 -4 -539
-7 -953 -7 -631 0 -752 -2 -747 -14 13 -35 40 -36 979 -36 509 0 925 -2 925
-5 0 -11 -52 -105 -61 -111 -5 -3 -9 -12 -9 -20 0 -8 -9 -23 -20 -34 -11 -11
-20 -27 -20 -35 0 -8 -9 -24 -21 -36 -16 -16 -20 -31 -18 -67 l3 -47 -359 -3
c-344 -3 -363 -2 -435 19 -41 11 -83 25 -93 31 -15 7 -18 6 -15 -8 2 -10 198
-155 454 -333 248 -174 594 -417 769 -541 175 -124 327 -229 339 -234 15 -6
39 0 87 22 36 17 198 87 360 157 162 70 335 147 386 170 50 24 101 46 112 50
12 3 21 10 21 14 0 4 10 8 22 8 13 1 24 7 26 12 2 6 22 16 44 22 23 6 47 17
55 24 7 8 21 11 30 8 11 -4 14 -2 9 5 -7 12 37 29 63 23 7 -1 10 2 7 8 -7 10
60 37 83 32 7 -1 10 2 7 7 -7 11 49 34 58 25 3 -4 6 -1 6 5 0 10 59 35 71 29
3 -1 14 6 24 16 9 10 24 16 31 13 8 -3 14 -2 14 3 0 11 50 32 61 26 5 -4 9 -2
9 3 0 10 70 45 77 38 3 -3 12 2 20 10 9 8 21 13 29 10 7 -3 14 0 16 5 2 6 60
34 128 63 69 29 145 62 170 74 25 11 110 48 190 82 135 58 188 81 265 117 30
13 29 13 -15 7 -25 -4 -65 -12 -90 -18 -30 -7 -114 -9 -245 -6 l-200 5 -30 47
c-16 26 -63 105 -104 175 -41 71 -107 182 -146 248 -39 66 -275 474 -525 908
-301 520 -460 787 -471 787 -13 0 -14 -8 -9 -47z m-295 -1326 c19 -29 54 -199
62 -299 l6 -78 -147 0 c-87 0 -156 -4 -168 -11 l-20 -11 21 -19 c19 -18 42
-19 540 -19 l519 0 77 -132 c42 -73 89 -144 104 -158 16 -14 31 -34 33 -45 3
-20 -3 -20 -284 -23 -175 -1 -288 -6 -288 -12 0 -5 15 -17 33 -27 24 -14 64
-19 167 -23 l134 -5 32 -172 c18 -94 36 -178 40 -185 5 -7 9 -20 9 -28 0 -10
8 -14 24 -12 34 3 29 0 -78 -47 -51 -22 -88 -34 -81 -26 7 8 18 15 25 15 17 0
38 27 27 34 -8 5 -188 -67 -201 -80 -2 -2 2 -10 8 -18 10 -12 4 -18 -35 -35
-55 -25 -71 -27 -30 -5 19 11 25 19 17 23 -13 8 -111 505 -111 564 l0 37 -444
0 c-244 0 -451 3 -460 6 -26 10 -18 45 30 129 25 44 84 150 131 235 47 85 103
184 126 220 94 150 149 230 157 230 5 0 16 -10 25 -23z m1925 -827 c-19 -11
-39 -19 -45 -19 -5 0 6 8 25 19 19 11 40 19 45 19 6 0 -6 -8 -25 -19z m-80
-35 c-14 -8 -29 -14 -35 -14 -5 0 1 6 15 14 14 8 30 14 35 14 6 0 -1 -6 -15
-14z m-70 -30 c-14 -8 -29 -14 -35 -14 -5 0 1 6 15 14 14 8 30 14 35 14 6 0
-1 -6 -15 -14z m-70 -30 c-14 -8 -29 -14 -35 -14 -5 0 1 6 15 14 14 8 30 14
35 14 6 0 -1 -6 -15 -14z m-3105 -19 c30 -20 47 -58 43 -97 -3 -26 -4 -26
-108 48 l-105 75 72 -5 c44 -2 83 -11 98 -21z m2999 -15 c3 -5 -1 -11 -9 -14
-9 -4 -12 -1 -8 9 6 16 10 17 17 5z m-665 -80 c14 -32 22 -75 23 -124 3 -67 5
-74 20 -66 18 10 35 12 27 4 -3 -2 -21 -11 -40 -19 l-34 -14 -1 41 c-1 23 -10
88 -21 145 -22 111 -13 123 26 33z m621 55 c0 -3 -4 -8 -10 -11 -5 -3 -10 -1
-10 4 0 6 5 11 10 11 6 0 10 -2 10 -4z m-70 -30 c0 -3 -4 -8 -10 -11 -5 -3
-10 -1 -10 4 0 6 5 11 10 11 6 0 10 -2 10 -4z m-100 -46 c-8 -5 -19 -10 -25
-10 -5 0 -3 5 5 10 8 5 20 10 25 10 6 0 3 -5 -5 -10z m-190 -85 c-14 -8 -29
-14 -35 -14 -5 0 1 6 15 14 14 8 30 14 35 14 6 0 -1 -6 -15 -14z m-70 -30
c-14 -8 -29 -14 -35 -14 -5 0 1 6 15 14 14 8 30 14 35 14 6 0 -1 -6 -15 -14z
m-70 -30 c-14 -8 -29 -14 -35 -14 -5 0 1 6 15 14 14 8 30 14 35 14 6 0 -1 -6
-15 -14z m-381 -159 c-2 -2 -15 -9 -29 -15 -24 -11 -24 -11 -6 3 16 13 49 24
35 12z m-199 -91 c-14 -8 -29 -14 -35 -14 -5 0 1 6 15 14 14 8 30 14 35 14 6
0 -1 -6 -15 -14z m-70 -30 c-14 -8 -29 -14 -35 -14 -5 0 1 6 15 14 14 8 30 14
35 14 6 0 -1 -6 -15 -14z m-70 -30 c-14 -8 -29 -14 -35 -14 -5 0 1 6 15 14 14
8 30 14 35 14 6 0 -1 -6 -15 -14z"></path>
<path d="M19703 5278 c-25 -12 -29 -23 -13 -33 14 -9 62 23 55 35 -7 12 -14
12 -42 -2z"></path>
<path d="M10068 7233 c7 -3 16 -2 19 1 4 3 -2 6 -13 5 -11 0 -14 -3 -6 -6z"></path>
<path d="M20296 6136 c13 -35 40 -36 974 -36 505 0 921 -3 923 -7 2 -5 -39
-82 -93 -173 -53 -91 -158 -268 -232 -395 -74 -126 -217 -369 -318 -540 -273
-461 -282 -478 -278 -521 2 -21 8 -39 15 -41 6 -2 29 26 51 64 50 87 530 920
723 1253 81 140 155 273 165 295 11 22 25 46 32 54 7 7 12 23 10 35 l-3 21
-987 3 c-833 2 -987 0 -982 -12z"></path>
<path d="M15880 5940 c0 -17 218 -400 780 -1370 145 -250 141 -242 147 -330
12 -164 40 -103 -472 -990 -255 -441 -461 -809 -458 -816 4 -11 183 -14 981
-16 l977 -3 49 -25 c47 -24 54 -33 159 -215 357 -620 821 -1423 834 -1443 20
-32 30 -22 103 106 49 85 59 110 52 127 -5 11 -85 151 -177 310 -700 1212
-696 1204 -689 1230 l6 25 -1035 0 c-942 0 -1037 1 -1052 16 -33 34 -82 -54
874 1596 145 251 150 261 129 253 -7 -3 -21 0 -30 7 -9 7 -82 126 -161 263
-292 508 -641 1113 -694 1203 l-55 92 -134 0 c-128 0 -134 -1 -134 -20z"></path>
<path d="M21265 5500 c-137 -60 -268 -116 -290 -126 -22 -9 -64 -27 -93 -40
-29 -13 -55 -24 -57 -24 -2 0 -30 -12 -62 -26 -32 -14 -74 -32 -93 -40 -54
-24 -70 -31 -143 -63 -38 -17 -71 -31 -73 -31 -4 0 -617 -260 -709 -300 -22
-10 -69 -30 -105 -45 -94 -39 -121 -51 -155 -66 -16 -7 -34 -14 -40 -15 -5 0
-37 -14 -70 -29 -33 -16 -68 -30 -78 -31 -9 -1 -26 -9 -36 -18 -10 -9 -22 -16
-27 -15 -16 4 -64 -13 -64 -22 0 -5 -11 -9 -25 -9 -14 0 -28 -7 -32 -16 -3 -8
-12 -13 -19 -10 -8 3 -14 1 -14 -5 0 -6 -4 -7 -10 -4 -5 3 -22 0 -37 -8 -16
-7 -43 -21 -61 -30 -19 -9 -40 -17 -47 -17 -8 0 -18 -7 -23 -16 -6 -11 -11
-13 -16 -5 -5 7 -19 3 -44 -13 -21 -13 -52 -27 -70 -31 -17 -3 -32 -11 -32
-15 0 -5 -7 -7 -16 -3 -23 8 -35 -16 -28 -57 3 -19 46 -237 94 -485 49 -247
109 -558 135 -690 25 -132 55 -285 66 -340 28 -139 163 -845 200 -1045 32
-171 42 -210 58 -210 8 0 31 104 31 139 0 11 258 464 413 726 l35 60 -293 5
c-176 3 -298 9 -304 15 -11 11 -137 633 -171 845 -12 74 -30 173 -40 220 -10
47 -30 150 -45 230 -14 80 -35 183 -45 230 -10 47 -26 134 -35 194 -16 100
-16 111 -1 121 8 7 12 16 8 20 -4 5 1 5 11 2 22 -8 69 12 60 26 -4 6 0 8 11 4
20 -8 87 23 79 36 -3 6 -1 7 6 3 14 -9 53 2 46 14 -10 17 201 18 233 1 40 -21
56 -68 60 -179 3 -83 7 -102 18 -98 88 36 49 12 -56 -34 -52 -23 -114 -50
-137 -61 -23 -10 -44 -19 -47 -19 -5 0 -173 -76 -195 -88 -21 -12 -15 -26 16
-38 29 -11 44 -6 616 241 59 26 107 52 107 59 0 7 -11 19 -25 26 -20 11 -30
11 -51 1 -15 -6 -28 -10 -31 -8 -2 2 9 10 25 16 l29 12 -32 167 c-30 154 -35
232 -15 232 5 0 11 -8 15 -19 13 -43 43 -40 170 15 107 47 121 51 127 36 4 -9
26 -118 48 -241 23 -124 44 -230 48 -237 4 -7 120 -90 257 -185 138 -95 251
-173 253 -175 2 -1 -25 -55 -61 -119 -59 -107 -64 -121 -56 -154 9 -42 -1 -59
-29 -45 -11 5 -132 88 -269 184 -154 107 -249 180 -246 187 3 7 2 20 -1 29 -5
13 -10 13 -36 -6 -16 -12 -34 -19 -39 -16 -5 3 -20 -4 -35 -15 -14 -11 -30
-18 -34 -15 -5 3 -25 -6 -45 -19 -20 -14 -41 -25 -47 -25 -7 0 -24 -6 -38 -14
-15 -8 -43 -21 -62 -29 -19 -8 -60 -26 -90 -40 -30 -13 -116 -50 -190 -82
-158 -67 -210 -93 -210 -103 1 -18 18 -32 33 -26 9 3 14 11 10 17 -4 6 0 8 10
4 22 -8 69 12 60 26 -4 6 0 8 11 4 20 -8 87 23 79 36 -3 6 -1 7 6 3 16 -10 53
3 45 16 -5 7 -1 9 9 5 22 -8 69 12 60 26 -4 6 0 8 10 4 9 -3 43 6 76 20 45 19
58 29 54 42 -5 13 -3 14 8 4 8 -8 41 -13 84 -13 38 0 85 -4 102 -9 49 -14 387
-255 401 -286 18 -39 25 -153 14 -222 -8 -48 -28 -91 -89 -197 l-78 -136 -382
0 c-227 0 -384 -4 -388 -9 -3 -6 5 -19 17 -30 22 -21 25 -21 1135 -21 668 0
1113 4 1113 9 0 5 -19 16 -42 24 -24 8 -59 21 -79 29 -20 7 -149 92 -287 188
-222 154 -252 178 -252 202 0 15 36 89 87 176 l86 150 19 -23 c10 -13 18 -29
18 -37 1 -7 121 -96 267 -197 336 -231 363 -242 216 -81 -54 59 -102 132 -219
335 -82 142 -151 266 -154 275 -8 24 -192 343 -207 360 -8 8 -106 173 -217
367 -145 251 -205 363 -209 393 l-5 42 21 -20 c41 -39 65 -36 191 17 65 28
119 51 121 51 2 0 15 -19 28 -42 14 -24 91 -160 172 -303 143 -251 327 -568
567 -975 91 -154 351 -601 684 -1175 24 -42 87 -98 98 -88 3 4 6 13 6 21 0 8
-220 395 -488 861 -269 465 -512 887 -539 936 -28 50 -86 151 -128 225 -45 79
-77 146 -77 161 1 35 420 763 464 806 18 18 29 32 23 32 -5 -1 -122 -50 -260
-109z m-290 -160 c3 -5 1 -10 -4 -10 -6 0 -11 5 -11 10 0 6 2 10 4 10 3 0 8
-4 11 -10z m-70 -30 c3 -5 1 -10 -4 -10 -6 0 -11 5 -11 10 0 6 2 10 4 10 3 0
8 -4 11 -10z m58 -55 c59 -9 72 -39 72 -160 -1 -88 -4 -107 -29 -163 l-29 -63
-40 63 c-59 92 -131 218 -146 256 -9 21 -21 32 -35 33 -19 1 -19 2 -2 6 14 4
16 7 6 13 -9 5 -5 8 11 8 13 0 40 5 59 10 34 10 56 9 133 -3z m-403 -99 c0 -3
-4 -8 -10 -11 -5 -3 -10 -1 -10 4 0 6 5 11 10 11 6 0 10 -2 10 -4z m-477 -262
c55 -5 74 -11 97 -32 16 -15 95 -144 177 -286 l148 -260 0 -125 c0 -101 -3
-132 -18 -158 l-17 -32 -83 51 c-99 62 -376 248 -382 258 -8 13 -58 276 -81
428 -13 89 -20 112 -33 112 -9 1 8 11 38 24 32 14 48 26 40 29 -8 3 0 4 16 2
17 -3 61 -7 98 -11z m-265 -59 c-15 -13 -68 -34 -68 -26 0 5 11 12 25 15 14 4
25 11 25 17 0 6 5 7 11 4 6 -4 9 -8 7 -10z m-118 -55 c-20 -13 -33 -13 -25 0
3 6 14 10 23 10 15 0 15 -2 2 -10z m-50 -20 c-8 -5 -19 -10 -25 -10 -5 0 -3 5
5 10 8 5 20 10 25 10 6 0 3 -5 -5 -10z m-50 -20 c-8 -5 -19 -10 -25 -10 -5 0
-3 5 5 10 8 5 20 10 25 10 6 0 3 -5 -5 -10z m-505 -210 c3 -5 1 -10 -4 -10 -6
0 -11 5 -11 10 0 6 2 10 4 10 3 0 8 -4 11 -10z m1670 -239 c-3 -5 -1 -12 4
-15 4 -3 11 -24 15 -46 4 -24 37 -92 81 -166 41 -69 75 -130 75 -134 0 -4
-115 -209 -255 -454 -209 -366 -254 -451 -249 -472 7 -27 35 -45 41 -27 2 6
24 43 49 82 l46 71 29 -15 c39 -21 58 -53 68 -114 l8 -51 -313 0 c-172 0 -319
3 -328 6 -29 11 -19 72 25 148 23 39 95 166 161 281 66 116 125 215 132 220
12 11 149 247 179 310 40 83 219 385 229 385 5 0 7 -4 3 -9z m-1285 -21 c-19
-11 -39 -19 -45 -19 -5 0 6 8 25 19 19 11 40 19 45 19 6 0 -6 -8 -25 -19z
m-70 -30 c-8 -5 -19 -10 -25 -10 -5 0 -3 5 5 10 8 5 20 10 25 10 6 0 3 -5 -5
-10z m-84 -1845 c45 -18 57 -63 52 -189 l-3 -101 -59 -103 c-32 -57 -59 -102
-61 -100 -11 11 -68 283 -89 431 l-13 88 71 -7 c39 -3 85 -12 102 -19z"></path>
<path d="M696 5491 c-4 -7 2 -20 16 -31 21 -17 40 -19 190 -20 l168 0 2 -402
3 -403 723 -3 c768 -2 753 -3 702 43 -19 17 -20 31 -20 347 l0 328 -74 0
c-132 0 -135 -7 -135 -397 l-1 -263 -564 0 -563 0 -7 46 c-3 26 -6 203 -6 395
0 205 -4 350 -9 354 -5 3 -102 8 -214 12 -152 4 -206 3 -211 -6z"></path>
<path d="M2520 5488 c0 -9 11 -23 25 -32 20 -13 54 -16 190 -16 l165 0 0
-1087 c1 -1074 1 -1088 21 -1112 35 -42 43 -15 47 144 3 104 8 145 16 145 21
0 50 -33 91 -105 79 -136 232 -261 375 -306 116 -36 237 -41 1023 -34 414 3
885 5 1047 4 282 -1 296 0 320 19 14 11 33 34 43 51 l18 31 -135 0 c-74 0
-141 3 -150 6 -10 4 -16 18 -16 36 0 21 166 357 501 1014 496 974 500 983 485
1012 -19 37 -44 58 -56 46 -5 -5 -224 -430 -485 -944 -262 -514 -486 -943
-497 -952 -43 -38 -48 -27 -48 105 0 83 -4 129 -12 140 -12 16 -79 17 -859 19
l-846 3 -41 28 c-64 45 -72 71 -72 251 l0 156 561 0 561 0 29 29 c16 16 29 39
29 50 l0 21 -585 0 -585 0 -29 32 c-16 18 -33 28 -39 24 -18 -11 -16 -429 2
-490 19 -64 57 -110 110 -135 44 -22 46 -22 875 -21 l831 0 0 -174 c0 -135 3
-180 15 -202 8 -16 15 -35 15 -42 0 -10 -167 -12 -877 -10 -980 4 -905 -2
-1058 75 -99 50 -218 172 -268 273 -68 141 -68 139 -65 828 l3 617 27 80 c15
44 43 106 62 138 38 63 36 63 -45 0 -66 -51 -127 -124 -177 -210 -31 -54 -74
-95 -86 -82 -2 2 -8 131 -12 287 -4 155 -10 285 -15 287 -4 3 -102 8 -218 12
-186 5 -211 4 -211 -9z"></path>
<path d="M3713 5485 c-115 -21 -293 -114 -293 -153 0 -9 -9 -23 -20 -30 -11
-7 -20 -17 -20 -23 0 -6 25 12 55 39 92 81 236 141 311 129 25 -4 33 -3 28 6
-5 8 -3 8 7 0 10 -10 190 -13 831 -13 l818 0 0 -173 c0 -172 0 -174 25 -197
19 -18 26 -20 30 -9 3 8 4 107 3 219 l-3 205 -85 7 c-47 3 -429 6 -850 6 -589
0 -782 -3 -837 -13z"></path>
<path d="M7995 5490 c-4 -6 4 -19 17 -30 21 -17 40 -19 191 -20 l167 0 0 -777
0 -778 23 -56 c43 -102 117 -172 212 -198 27 -8 230 -12 620 -14 l580 -2 3
-174 c1 -96 6 -179 11 -185 5 -6 11 -22 13 -36 l3 -25 -580 -3 c-584 -3 -685
2 -781 33 -124 41 -197 87 -295 185 -106 105 -158 192 -200 330 -23 75 -23 78
-27 843 l-3 767 -75 0 c-66 0 -78 -3 -99 -25 l-25 -24 0 -823 0 -823 -103 189
c-56 105 -268 516 -472 915 -373 733 -414 802 -398 684 7 -53 284 -617 648
-1319 112 -215 255 -494 318 -620 65 -129 126 -239 141 -251 14 -13 26 -27 26
-33 0 -5 7 -10 15 -10 23 0 29 44 11 79 -28 52 21 36 126 -43 93 -69 174 -109
279 -138 83 -22 91 -23 649 -23 l565 0 47 28 c81 49 252 47 315 -3 23 -18 41
-20 184 -20 149 0 161 1 205 25 41 22 60 25 144 25 84 0 103 -3 144 -25 44
-24 56 -25 202 -25 92 0 164 4 176 11 16 9 48 64 48 84 0 3 -47 5 -104 5 -82
0 -108 3 -120 16 -14 14 -16 118 -16 994 l0 980 -62 50 c-35 27 -79 58 -99 67
-36 18 -36 18 -43 98 -5 57 -11 84 -23 93 -20 15 -418 18 -428 3 -3 -5 8 -19
24 -30 27 -19 43 -21 193 -21 l163 0 0 -1086 c0 -597 3 -1088 7 -1090 4 -2 13
-18 21 -34 13 -25 13 -29 0 -34 -27 -11 -403 -6 -424 4 -19 10 -19 33 -19
1080 l0 1070 -71 0 c-39 0 -79 -5 -91 -11 -48 -26 -48 -24 -48 -876 l0 -798
-617 5 c-559 5 -622 7 -656 22 -62 28 -111 73 -143 130 l-29 53 -5 805 -5 805
-85 7 c-139 10 -338 9 -345 -2z"></path>
<path d="M12650 5488 c0 -9 11 -23 25 -32 20 -13 54 -16 190 -16 l165 0 0
-1077 c0 -1062 0 -1078 20 -1111 11 -18 24 -31 29 -28 4 3 11 169 15 368 4
200 9 365 11 367 13 13 56 -36 74 -83 127 -339 421 -627 747 -729 196 -62 197
-62 822 -62 l574 0 29 33 c16 18 29 41 29 52 0 20 -8 20 -482 20 -514 0 -607
6 -748 47 -179 51 -337 142 -473 272 -308 293 -426 712 -318 1135 37 145 105
289 192 406 l62 84 -44 -34 c-163 -128 -316 -336 -390 -536 -18 -49 -61 -96
-75 -82 -2 3 -7 226 -11 497 -5 366 -9 494 -18 501 -7 6 -105 13 -219 17 -182
5 -206 4 -206 -9z"></path>
<path d="M14365 5493 c-134 -13 -312 -66 -424 -126 -104 -55 -239 -157 -234
-176 1 -5 -11 -21 -27 -36 -17 -16 -30 -33 -30 -38 0 -5 29 18 65 51 165 155
419 273 593 275 36 0 62 5 62 11 0 6 5 4 10 -4 9 -13 11 -13 20 0 6 10 10 11
10 3 0 -10 122 -13 575 -13 l575 0 0 -169 c0 -165 1 -171 24 -198 13 -15 28
-24 33 -20 4 5 9 97 11 205 2 161 0 201 -12 217 -14 20 -27 20 -613 21 -329 1
-616 0 -638 -3z"></path>
<path d="M23610 5489 c-101 -13 -236 -55 -335 -104 -86 -43 -230 -146 -230
-165 0 -5 -9 -16 -20 -24 -11 -8 -17 -17 -13 -21 4 -4 40 20 80 52 131 107
251 167 404 204 51 12 102 18 129 15 29 -4 45 -1 48 7 4 9 6 9 6 0 1 -10 116
-13 541 -13 l540 0 0 -173 c0 -95 4 -177 9 -183 5 -5 11 -20 13 -34 l3 -25
-585 -5 c-419 -4 -595 -9 -620 -18 -42 -14 -40 -14 -40 -3 0 5 10 12 23 16 17
6 19 8 6 12 -24 6 -126 -38 -194 -83 -32 -22 -74 -48 -93 -59 -75 -43 -177
-205 -214 -342 -29 -108 -29 -278 0 -386 57 -209 195 -383 377 -472 132 -65
134 -66 752 -68 l558 -2 3 -174 c1 -96 6 -179 11 -185 5 -6 11 -22 13 -36 l3
-25 -595 0 c-658 0 -646 -1 -827 67 -238 90 -461 294 -581 533 -136 272 -163
600 -75 905 44 152 114 292 200 396 69 85 16 49 -103 -70 -166 -167 -261 -333
-320 -561 -25 -95 -29 -129 -29 -245 0 -113 4 -152 27 -241 109 -430 432 -762
843 -866 l110 -28 787 2 c564 1 793 5 809 13 17 10 49 64 49 85 0 3 -39 5 -86
5 -47 0 -94 5 -105 10 -19 10 -19 33 -19 1080 0 1041 -1 1070 -19 1070 -16 0
-19 10 -23 66 -3 42 -9 69 -19 75 -18 11 -1109 10 -1199 -2z m997 -605 c49
-37 51 -62 52 -661 l1 -553 -482 0 c-547 0 -568 3 -708 71 -263 130 -408 447
-344 757 29 144 112 281 223 369 l56 43 587 -2 c578 -3 587 -3 615 -24z"></path>
<path d="M24906 5492 c-3 -6 7 -20 23 -31 26 -19 43 -21 180 -21 l151 0 2
-402 3 -403 678 -3 c720 -2 708 -3 657 43 -19 17 -20 31 -20 347 l0 328 -74 0
c-132 0 -135 -7 -135 -397 l-1 -263 -519 0 -518 0 -7 46 c-3 26 -6 203 -6 395
0 198 -4 350 -9 353 -19 12 -398 19 -405 8z"></path>
<path d="M26620 5488 c0 -9 11 -23 25 -32 20 -13 53 -16 175 -16 l150 0 0
-1083 c0 -937 2 -1086 15 -1103 8 -10 15 -29 15 -41 l0 -23 -194 0 c-164 0
-197 3 -210 16 -14 14 -16 74 -16 510 l0 494 -619 0 -619 0 -32 30 c-18 16
-36 27 -41 24 -5 -3 -9 -219 -9 -503 l0 -498 23 -21 c13 -12 27 -19 30 -15 4
3 7 133 7 287 0 155 3 352 7 439 l6 159 461 -5 c318 -3 473 -8 498 -16 73 -23
72 -21 78 -506 5 -449 7 -462 50 -485 12 -6 156 -10 391 -10 l372 0 39 40 c21
23 38 45 38 50 0 6 -52 10 -126 10 l-126 0 5 28 c2 15 10 54 17 87 9 42 147
342 452 982 343 719 439 928 434 947 -3 14 -17 38 -31 53 -24 27 -26 27 -38 9
-6 -11 -175 -360 -374 -775 -295 -616 -367 -759 -390 -773 -15 -10 -31 -18
-35 -18 -5 0 -8 388 -8 863 0 675 -3 867 -12 880 -11 15 -41 18 -210 24 -175
5 -198 4 -198 -9z"></path>
<path d="M31269 5498 c-9 -31 -12 -260 -15 -1152 -4 -942 -2 -1072 11 -1092 8
-13 15 -32 15 -44 0 -19 -6 -20 -194 -20 -164 0 -197 3 -210 16 -14 14 -16 90
-16 685 0 573 2 675 15 706 8 19 15 40 15 45 0 17 -47 -14 -104 -69 -13 -13
-27 -23 -31 -23 -7 0 -27 -16 -82 -67 -13 -13 -28 -23 -33 -23 -5 0 -15 -8
-22 -17 -7 -10 -22 -23 -33 -29 -11 -6 -24 -20 -30 -30 -5 -10 -16 -19 -23
-19 -7 0 -21 -13 -31 -28 -10 -16 -21 -28 -25 -28 -18 3 -24 -1 -34 -25 -7
-14 -16 -22 -22 -19 -5 3 -19 -8 -31 -24 -12 -17 -25 -28 -29 -26 -4 3 -20
-11 -35 -30 -14 -20 -30 -33 -34 -31 -11 7 -53 -52 -46 -64 11 -18 25 -11 104
53 158 129 196 146 253 116 42 -22 43 -33 48 -579 5 -552 6 -556 51 -581 15
-7 304 -11 982 -12 917 -2 966 -1 1037 17 81 21 137 42 186 72 31 19 20 19
-734 16 -566 -2 -768 0 -778 9 -12 10 -14 180 -14 1080 l0 1069 -30 0 -30 0 0
65 c0 53 -3 66 -19 75 -19 10 -30 13 -32 8z"></path>
<path d="M31420 5487 c0 -8 11 -22 25 -31 22 -14 94 -16 693 -16 728 0 728 0
836 -58 28 -14 85 -60 126 -102 122 -121 173 -243 173 -415 1 -105 -13 -174
-56 -268 l-30 -68 70 -67 c156 -148 227 -315 226 -527 -1 -131 -24 -228 -79
-336 -21 -41 -38 -78 -39 -82 0 -4 -5 -11 -10 -15 -6 -4 -16 -19 -22 -34 -26
-59 -173 -160 -312 -215 -14 -5 -21 -12 -15 -15 19 -12 185 52 254 97 38 26
72 51 76 56 7 12 48 11 76 -2 13 -5 34 -26 48 -45 39 -58 146 -149 218 -187
129 -68 140 -69 622 -74 239 -3 698 -2 1019 2 l585 7 28 28 c15 16 28 38 28
49 0 20 -6 21 -89 21 -68 0 -93 4 -105 16 -14 14 -16 126 -16 1080 l0 1064
-24 0 c-22 0 -24 4 -28 66 -3 42 -9 69 -19 75 -8 5 -335 8 -834 6 -910 -3
-844 2 -983 -72 -81 -43 -125 -80 -120 -101 2 -13 12 -9 46 19 24 20 71 50
105 66 68 33 177 56 177 37 0 -6 5 -4 10 4 6 10 10 11 10 3 0 -10 161 -13 770
-13 l770 0 0 -173 c0 -95 4 -177 9 -183 5 -5 11 -20 13 -34 l3 -25 -784 -3
c-694 -2 -783 0 -777 13 8 21 -9 19 -70 -10 -64 -30 -89 -61 -103 -126 -12
-54 -15 -227 -5 -253 6 -14 74 -16 670 -16 l664 0 0 -168 0 -168 28 -27 c16
-15 31 -24 35 -20 13 12 8 418 -5 431 -9 9 -172 12 -671 12 l-660 0 6 83 c4
45 7 94 7 110 l0 27 718 -1 c528 0 726 -3 751 -12 19 -7 44 -25 55 -40 21 -28
21 -38 24 -608 l3 -579 -714 0 -714 0 -44 23 c-68 36 -89 81 -89 192 0 50 3
120 7 158 l6 67 514 0 514 0 24 25 c14 13 25 36 25 50 l0 25 -537 0 -537 0
-33 32 c-28 27 -35 30 -43 18 -6 -9 -8 -105 -4 -245 5 -196 9 -237 26 -275 24
-55 43 -77 91 -101 36 -19 70 -20 815 -22 l777 -2 3 -174 c1 -96 6 -179 11
-185 5 -6 11 -22 13 -36 l3 -25 -788 -3 c-663 -2 -799 0 -858 13 -205 42 -372
195 -446 407 l-26 73 -1 650 -1 650 23 75 c13 41 39 104 58 139 18 36 32 66
31 67 -2 2 -28 -17 -60 -41 -74 -58 -157 -160 -197 -241 -17 -35 -33 -64 -35
-64 -1 0 -11 34 -20 76 -49 222 -228 417 -440 480 -54 16 -125 18 -767 21
-610 3 -708 2 -708 -10z"></path>
<path d="M35790 5487 c0 -8 11 -22 25 -31 22 -14 95 -16 698 -16 587 0 680 -2
728 -16 184 -54 326 -201 385 -399 25 -82 25 -248 0 -330 -32 -108 -73 -179
-175 -298 -55 -65 -94 -92 -176 -122 -14 -5 -16 -9 -7 -12 21 -8 133 37 182
72 173 127 269 337 258 564 -14 268 -174 488 -413 569 l-80 27 -712 3 c-615 3
-713 1 -713 -11z"></path>
<path d="M28097 5439 c6 -53 231 -538 690 -1489 121 -250 241 -502 268 -560
26 -58 59 -115 72 -127 13 -12 24 -32 26 -45 l2 -23 -215 -2 c-118 -2 -220 1
-227 5 -7 4 -150 295 -318 646 -283 592 -305 643 -305 692 0 106 -5 98 -273
-477 -96 -206 -221 -468 -277 -584 -88 -182 -100 -213 -90 -233 5 -13 15 -22
22 -20 6 2 90 170 188 373 143 300 263 536 287 564 2 3 18 -2 36 -11 29 -14
52 -58 267 -508 129 -271 247 -506 262 -521 l26 -29 377 0 c250 0 383 4 397
11 16 9 48 64 48 83 0 3 -42 7 -92 8 l-93 3 -9 55 c-5 30 -11 477 -15 993 l-6
937 -80 65 c-82 67 -98 74 -112 53 -4 -7 -10 -343 -13 -747 l-5 -733 -94 182
c-51 100 -231 471 -400 823 -168 353 -310 648 -314 655 -5 6 -14 12 -22 12
-11 0 -13 -11 -8 -51z"></path>
<path d="M29190 5485 c0 -3 9 -23 20 -45 15 -29 138 -136 507 -441 269 -221
494 -407 501 -412 10 -8 14 -5 19 11 3 12 80 84 172 159 91 75 218 180 282
233 63 52 203 167 311 255 108 88 194 163 191 168 -7 13 -23 8 -23 -8 0 -8 -8
-15 -18 -15 -14 0 -360 -270 -382 -299 -3 -3 -25 -22 -50 -40 -25 -19 -54 -43
-65 -53 -11 -10 -76 -63 -145 -119 -69 -56 -127 -104 -130 -108 -3 -3 -22 -19
-43 -34 -20 -16 -49 -39 -63 -52 l-25 -23 -117 87 c-64 49 -296 235 -515 414
-348 286 -427 345 -427 322z"></path>
<path d="M10841 5439 c12 -24 29 -49 39 -56 15 -10 306 -235 1015 -784 426
-330 740 -569 748 -569 12 0 8 26 -13 71 -19 42 -20 68 -20 647 l0 602 -71 0
c-39 0 -79 -5 -89 -10 -44 -24 -45 -33 -50 -541 l-5 -486 -115 80 c-63 45
-407 306 -765 581 -357 275 -661 502 -673 504 l-24 5 23 -44z"></path>
<path d="M16857 5463 c-4 -6 80 -160 185 -344 105 -184 193 -342 196 -351 2
-9 -29 -72 -72 -143 -59 -99 -76 -134 -76 -164 0 -21 6 -43 13 -49 10 -9 35
27 115 166 56 98 102 181 102 185 0 15 122 217 132 217 5 0 7 -4 4 -9 -3 -5 0
-14 8 -20 8 -7 17 -22 20 -34 4 -13 46 -49 106 -91 55 -38 104 -74 109 -80 6
-7 -48 -109 -165 -306 -96 -162 -216 -367 -266 -455 -50 -88 -144 -252 -208
-365 -319 -559 -329 -580 -285 -580 9 0 18 6 21 13 3 8 10 14 17 14 10 0 347
138 462 188 119 53 289 124 290 122 1 -1 34 -57 73 -124 40 -67 79 -126 88
-131 11 -6 -1 -15 -53 -37 -37 -16 -96 -41 -131 -57 -34 -15 -65 -28 -67 -28
-2 0 -34 -13 -69 -30 -118 -53 -135 -59 -139 -47 -4 14 -27 0 -27 -19 0 -8 6
-14 13 -14 6 0 304 -1 661 -3 l649 -2 26 -132 c14 -72 33 -140 41 -150 30 -36
41 -63 28 -64 -7 0 -115 0 -240 1 -240 1 -258 -2 -195 -40 28 -18 50 -20 188
-20 l157 0 111 -194 c62 -107 118 -202 126 -212 33 -45 24 6 -23 138 -30 84
-60 191 -72 258 -25 139 -73 394 -134 710 -25 129 -61 321 -81 425 -19 105
-61 321 -93 482 l-57 292 -273 191 c-151 104 -280 197 -288 205 -19 19 -261
187 -294 205 -14 7 -119 78 -235 158 -168 116 -228 164 -301 240 -50 52 -94
90 -97 85z m1047 -1043 c147 -103 178 -129 195 -164 27 -57 81 -342 84 -447 1
-64 5 -85 15 -82 6 3 12 3 12 0 0 -3 -40 -22 -90 -43 -49 -20 -90 -40 -90 -43
0 -15 26 -31 51 -31 25 0 56 11 144 50 95 42 167 71 171 67 3 -2 16 -62 29
-133 14 -71 29 -136 34 -145 8 -13 -2 -22 -57 -47 -121 -55 -161 -72 -172 -72
-7 0 -10 -12 -8 -27 3 -27 -9 -38 -29 -25 -11 7 -183 297 -183 309 0 3 -26 47
-59 97 -32 50 -123 204 -201 341 -79 138 -150 255 -158 262 -22 19 -32 6 -32
-40 0 -37 24 -84 183 -357 411 -705 508 -865 532 -877 13 -7 26 -22 30 -32 3
-11 14 -22 23 -24 9 -3 -82 -5 -204 -6 -163 -1 -224 2 -236 12 -16 12 -98 149
-98 163 0 10 -124 227 -175 304 -23 36 -97 160 -164 275 -88 152 -120 216
-116 232 6 26 172 332 229 423 94 150 127 192 147 187 9 -3 96 -60 193 -127z
m486 -620 c-8 -5 -19 -10 -25 -10 -5 0 -3 5 5 10 8 5 20 10 25 10 6 0 3 -5 -5
-10z m-60 -25 c-14 -8 -29 -14 -35 -14 -5 0 1 6 15 14 14 8 30 14 35 14 6 0
-1 -6 -15 -14z m-70 -30 c-14 -8 -29 -14 -35 -14 -5 0 1 6 15 14 14 8 30 14
35 14 6 0 -1 -6 -15 -14z m-1032 -160 c41 -63 52 -103 52 -188 0 -66 1 -67 21
-57 11 7 23 10 25 7 2 -2 -60 -31 -138 -65 -79 -33 -180 -76 -225 -96 l-83
-35 31 62 c106 210 245 429 269 425 8 -2 30 -26 48 -53z m312 -150 c-14 -8
-29 -14 -35 -14 -5 0 1 6 15 14 14 8 30 14 35 14 6 0 -1 -6 -15 -14z m-80 -35
c-19 -11 -39 -19 -45 -19 -5 0 6 8 25 19 19 11 40 19 45 19 6 0 -6 -8 -25 -19z
m-80 -35 c-14 -8 -29 -14 -35 -14 -5 0 1 6 15 14 14 8 30 14 35 14 6 0 -1 -6
-15 -14z m910 -173 c20 -16 58 -137 46 -149 -4 -4 -80 120 -92 151 -8 22 18
21 46 -2z m-735 -192 c3 -5 1 -10 -4 -10 -6 0 -11 5 -11 10 0 6 2 10 4 10 3 0
8 -4 11 -10z"></path>
<path d="M475 5325 l-25 -24 0 -1081 0 -1081 25 -24 c24 -24 27 -25 185 -25
96 0 169 4 182 11 16 9 48 64 48 84 0 3 -47 5 -104 5 -82 0 -108 3 -120 16
-14 14 -16 126 -16 1080 l0 1064 -75 0 c-67 0 -79 -3 -100 -25z"></path>
<path d="M31777 5063 c-13 -12 -8 -408 5 -421 9 -9 131 -12 488 -12 476 0 550
5 550 35 0 8 11 22 25 31 20 13 23 19 14 31 -10 11 -14 11 -29 -2 -9 -8 -21
-15 -26 -15 -4 0 6 13 23 28 17 16 39 44 48 62 34 65 -3 163 -76 200 -36 19
-60 20 -493 20 l-455 0 -25 25 c-26 26 -38 30 -49 18z m839 -175 c35 -19 41
-34 50 -130 l7 -68 -417 0 -416 0 0 110 0 111 373 -3 c329 -3 376 -5 403 -20z"></path>
<path d="M36144 5057 c-2 -7 -3 -105 -2 -217 l3 -205 485 -3 c488 -3 560 1
560 32 0 8 12 21 26 31 19 12 23 20 15 28 -9 9 -17 8 -31 -1 -34 -21 -31 -13
9 27 61 61 65 145 11 213 -45 58 -47 58 -544 58 l-455 0 -25 25 c-28 28 -44
32 -52 12z m812 -158 c59 -15 74 -40 81 -133 l6 -76 -417 0 -416 0 0 110 0
110 351 0 c228 0 366 -4 395 -11z"></path>
<path d="M3740 5036 c-126 -67 -134 -81 -139 -239 -2 -64 0 -128 3 -142 l6
-25 710 0 710 0 0 -168 c0 -135 3 -172 16 -190 20 -29 42 -28 49 1 4 13 5 108
3 211 -2 153 -6 188 -18 196 -9 6 -291 10 -712 10 l-698 0 0 88 c0 48 3 97 6
109 l6 22 754 3 754 3 24 25 c13 14 26 37 30 53 l6 27 -740 -2 c-407 -2 -740
0 -740 5 0 4 5 7 11 7 5 0 7 5 4 10 -8 13 -15 13 -45 -4z"></path>
<path d="M14190 4997 c-42 -18 -97 -48 -123 -65 -26 -18 -47 -30 -47 -26 0 4
-9 -4 -20 -16 -12 -13 -27 -25 -34 -26 -38 -5 -149 -162 -187 -263 -26 -70
-49 -187 -49 -251 0 -107 47 -278 101 -368 105 -172 259 -290 449 -341 88 -24
74 -23 538 -22 300 1 362 3 362 15 0 7 -7 19 -15 26 -12 10 -15 44 -15 186 l0
174 -348 0 c-257 0 -351 3 -360 12 -8 8 -12 60 -12 166 l0 155 -76 -5 c-65 -4
-79 -9 -102 -32 l-27 -26 0 -161 0 -161 33 -29 32 -29 228 0 c381 -1 400 -8
409 -155 l6 -87 -284 4 c-311 5 -344 10 -479 78 -327 165 -463 560 -305 885
44 91 118 181 190 230 l57 40 605 5 605 5 29 33 c16 18 29 42 29 53 0 20 -2
20 -522 17 -457 -3 -529 -6 -573 -21 -58 -19 -74 -14 -22 8 21 8 37 17 37 20
0 13 -41 2 -110 -28z"></path>
<path d="M29546 4653 c-3 -3 -6 -318 -6 -698 l0 -692 25 -23 c19 -18 26 -20
29 -9 2 8 7 243 9 522 3 280 7 511 10 513 14 14 90 -37 227 -150 83 -69 157
-126 165 -126 7 0 44 26 83 57 l70 57 -152 125 c-84 69 -206 170 -273 224 -97
80 -125 108 -144 148 -24 53 -32 62 -43 52z"></path>
<path d="M11207 4643 c-4 -3 -7 -315 -7 -693 l0 -687 23 -21 c13 -12 27 -19
30 -15 4 3 7 151 7 328 0 177 3 411 7 519 l6 198 29 -6 c16 -3 332 -239 763
-571 450 -347 742 -565 753 -563 19 4 35 83 30 158 l-3 45 -787 605 c-720 553
-788 609 -803 647 -17 43 -37 67 -48 56z"></path>
<path d="M6742 4578 c-5 -7 -117 -227 -247 -488 -131 -261 -278 -551 -327
-645 -76 -141 -89 -173 -82 -194 5 -13 14 -26 19 -28 6 -2 98 167 204 374 197
385 306 583 321 583 5 0 20 -4 33 -9 30 -12 39 -28 327 -594 153 -302 232
-445 252 -462 29 -25 32 -25 213 -25 204 0 219 4 231 68 l7 32 -125 0 c-107 0
-127 3 -140 18 -8 9 -160 301 -337 648 -298 586 -321 634 -321 682 0 52 -8 63
-28 40z"></path>
<path d="M14467 4483 c-4 -3 5 -17 19 -30 l25 -23 525 0 524 0 0 -579 0 -580
24 -28 c13 -15 28 -24 33 -20 12 13 16 1209 3 1241 l-10 26 -568 0 c-313 0
-572 -3 -575 -7z"></path>
<path d="M37176 4272 c-14 -14 0 -51 85 -228 50 -104 152 -317 225 -474 107
-226 142 -292 171 -318 56 -49 63 -27 20 65 -20 43 -98 209 -175 368 -169 354
-246 531 -236 546 4 7 3 9 -4 5 -6 -3 -13 -2 -17 3 -8 14 -63 40 -69 33z"></path>
<path d="M1076 4263 c-3 -3 -6 -230 -6 -503 l0 -497 23 -21 c13 -12 27 -19 30
-15 4 3 7 133 7 287 0 155 3 352 7 439 l6 159 506 -5 c356 -3 517 -7 543 -16
73 -23 72 -21 78 -506 5 -449 7 -462 50 -485 10 -6 89 -10 180 -10 158 0 161
1 185 25 14 13 25 36 25 50 l0 25 -99 0 c-77 0 -103 4 -115 16 -14 14 -16 74
-16 510 l0 494 -670 0 c-407 0 -670 4 -670 9 0 13 -56 52 -64 44z"></path>
<path d="M31777 4263 c-10 -9 -8 -616 2 -631 11 -18 1051 -18 1063 1 6 9 8 9
8 0 0 -7 7 -13 15 -13 8 0 15 3 15 8 0 4 21 15 48 25 26 9 65 33 87 52 l40 35
-30 -7 c-16 -3 -43 -15 -60 -25 -50 -30 -53 -20 -3 11 83 53 128 131 128 224
0 113 -61 207 -166 254 -35 16 -86 18 -560 21 l-522 3 -23 25 c-24 25 -31 28
-42 17z m898 -164 c92 -13 134 -36 169 -92 24 -39 29 -60 34 -135 2 -49 1
-115 -2 -146 l-7 -56 -515 0 -514 0 0 220 0 220 383 0 c210 0 413 -5 452 -11z"></path>
<path d="M36147 4263 c-4 -3 -7 -227 -7 -497 0 -429 2 -494 16 -514 18 -26 39
-29 48 -6 3 9 6 207 6 440 l0 424 23 0 c12 0 67 -5 121 -10 111 -11 164 -32
213 -82 21 -21 105 -184 237 -458 126 -259 216 -434 232 -447 24 -22 33 -23
194 -23 92 0 175 3 184 6 18 7 21 46 6 75 -9 16 -22 19 -93 19 -52 0 -89 5
-99 13 -8 6 -107 203 -219 437 -186 389 -208 429 -256 477 -83 82 -125 93
-349 93 l-185 0 -26 30 c-25 31 -34 35 -46 23z"></path>
<path d="M19750 2529 c0 -8 9 -22 20 -32 17 -14 43 -17 175 -17 84 0 156 -3
158 -7 3 -5 -84 -161 -192 -348 -749 -1295 -737 -1273 -724 -1312 9 -25 22
-12 68 69 26 46 87 151 135 233 48 83 208 359 355 615 148 256 301 516 341
578 l73 112 875 0 c532 0 877 4 881 9 3 5 -5 30 -17 55 l-22 46 -731 0 c-403
0 -881 3 -1063 7 -285 5 -332 4 -332 -8z"></path>
</g>
</svg>