<?xml version="1.0" encoding="UTF-8"?>
<svg version="1.1" xmlns="http://www.w3.org/2000/svg" width="397" height="48">
<path d="M0 0 C7 0 7 0 9.1875 2.01953125 C9.785625 2.94121094 10.38375 3.86289063 11 4.8125 C11.66 5.80507812 12.32 6.79765625 13 7.8203125 C13.66 8.86960937 14.32 9.91890625 15 11 C16.0209375 12.57394531 16.0209375 12.57394531 17.0625 14.1796875 C18.73196048 16.77139027 20.36914299 19.38383354 22 22 C22.33 14.74 22.66 7.48 23 0 C24.65 0 26.3 0 28 0 C28 11.22 28 22.44 28 34 C22 34 22 34 20.1640625 32.234375 C19.65617187 31.41453125 19.14828125 30.5946875 18.625 29.75 C18.04878906 28.85023437 17.47257812 27.95046875 16.87890625 27.0234375 C16.25886719 26.02570312 15.63882812 25.02796875 15 24 C13.53536101 21.78172456 12.04728807 19.57992338 10.5625 17.375 C9.386875 15.60125 8.21125 13.8275 7 12 C6.67 19.26 6.34 26.52 6 34 C4.02 34 2.04 34 0 34 C0 22.78 0 11.56 0 0 Z " fill="#F2B30F" transform="translate(3,0)"/>
<path d="M0 0 C0.75732422 0.00644531 1.51464844 0.01289062 2.29492188 0.01953125 C3.08060547 0.03628906 3.86628906 0.05304687 4.67578125 0.0703125 C5.47306641 0.07933594 6.27035156 0.08835937 7.09179688 0.09765625 C9.05742025 0.12119665 11.022889 0.15706703 12.98828125 0.1953125 C13.0875071 4.37615541 13.15991499 8.55636621 13.20800781 12.73803711 C13.22806546 14.15905707 13.25531903 15.57999509 13.29003906 17.00073242 C13.33882136 19.04887145 13.36130664 21.09591525 13.37890625 23.14453125 C13.39985352 24.37518311 13.42080078 25.60583496 13.44238281 26.8737793 C12.90533472 30.8020262 11.74791449 32.40777502 8.98828125 35.1953125 C6.30260828 36.53814899 4.11081272 36.43818769 1.11328125 36.5078125 C-0.46066406 36.56388672 -0.46066406 36.56388672 -2.06640625 36.62109375 C-5.01171875 36.1953125 -5.01171875 36.1953125 -7.39453125 34.42578125 C-9.01171875 32.1953125 -9.01171875 32.1953125 -9.01171875 28.1953125 C-7.36171875 28.1953125 -5.71171875 28.1953125 -4.01171875 28.1953125 C-3.68171875 29.1853125 -3.35171875 30.1753125 -3.01171875 31.1953125 C0.40484149 31.36208532 0.40484149 31.36208532 3.98828125 31.1953125 C4.64828125 30.5353125 5.30828125 29.8753125 5.98828125 29.1953125 C5.98828125 28.2053125 5.98828125 27.2153125 5.98828125 26.1953125 C5.32441406 26.25332031 4.66054688 26.31132813 3.9765625 26.37109375 C-3.28740242 26.74224524 -3.28740242 26.74224524 -7.07421875 23.8828125 C-10.63250696 18.9471224 -10.53323652 14.07839896 -10.01171875 8.1953125 C-8.02334288 2.89297686 -5.9168159 -0.08897468 0 0 Z M-2.19921875 5.5703125 C-4.96819612 9.58055559 -4.78748551 13.47018766 -4.01171875 18.1953125 C-2.54852965 20.9970608 -2.54852965 20.9970608 -0.01171875 22.1953125 C2.60219514 22.43932528 2.60219514 22.43932528 4.98828125 21.1953125 C7.17390772 18.8639776 7.94553677 17.1698866 8.0859375 13.96875 C7.83805405 10.25654422 7.66097162 7.93527191 5.11328125 5.1328125 C2.09075041 3.79934301 0.6080551 3.80574037 -2.19921875 5.5703125 Z " fill="#F1B20F" transform="translate(382.01171875,7.8046875)"/>
<path d="M0 0 C1.98 0 3.96 0 6 0 C6 4.29 6 8.58 6 13 C11.28 13 16.56 13 22 13 C22 8.71 22 4.42 22 0 C23.98 0 25.96 0 28 0 C28 11.22 28 22.44 28 34 C26.02 34 24.04 34 22 34 C22 28.39 22 22.78 22 17 C16.72 17 11.44 17 6 17 C6 22.61 6 28.22 6 34 C4.02 34 2.04 34 0 34 C0 22.78 0 11.56 0 0 Z " fill="#F1B410" transform="translate(238,0)"/>
<path d="M0 0 C5.61 0 11.22 0 17 0 C21.9283019 5.91396228 23.32626304 7.62661332 23.21875 14.9375 C22.78913466 18.98815896 20.99333081 21.85384906 18.375 24.875 C14.70683593 26.6125514 10.99419857 26.40096202 7 26 C6.34 25.67 5.68 25.34 5 25 C5 28.63 5 32.26 5 36 C3.35 36 1.7 36 0 36 C0 24.12 0 12.24 0 0 Z M6 7 C4.79809099 10.60572704 4.67329685 13.2102435 5 17 C6.85716187 19.90809543 6.85716187 19.90809543 9 22 C11.88949684 21.68762196 13.58633099 21.35661121 15.8125 19.4375 C17.50360735 15.96627965 17.68181829 12.74258951 17 9 C15.36318104 5.97136086 15.36318104 5.97136086 13 4 C9.45176068 4 8.58072903 4.67734388 6 7 Z " fill="#F1B30F" transform="translate(88,8)"/>
<path d="M0 0 C1.98 0 3.96 0 6 0 C6 2.97 6 5.94 6 9 C6.66 8.67 7.32 8.34 8 8 C10.2421875 7.76171875 10.2421875 7.76171875 12.875 7.6875 C13.73867187 7.65011719 14.60234375 7.61273437 15.4921875 7.57421875 C18 8 18 8 20.3046875 9.31640625 C23.0644736 13.68500775 22.41641777 18.20626158 22.25 23.25 C22.23195312 24.28125 22.21390625 25.3125 22.1953125 26.375 C22.14822712 28.91761064 22.0824805 31.45833162 22 34 C20.02 34 18.04 34 16 34 C15.67 27.4 15.34 20.8 15 14 C10.52297636 12.93462795 10.52297636 12.93462795 8 13 C7.24722485 15.73249341 6.83358297 18.28100683 6.68359375 21.109375 C6.64169922 21.86347656 6.59980469 22.61757813 6.55664062 23.39453125 C6.49766602 24.56048828 6.49766602 24.56048828 6.4375 25.75 C6.39431641 26.54277344 6.35113281 27.33554687 6.30664062 28.15234375 C6.20097009 30.10137815 6.10002034 32.05066748 6 34 C4.02 34 2.04 34 0 34 C0 22.78 0 11.56 0 0 Z " fill="#F1B310" transform="translate(114,0)"/>
<path d="M0 0 C1.1240625 -0.00773438 2.248125 -0.01546875 3.40625 -0.0234375 C6.89187219 0.42546839 8.26545583 0.64981606 10.5 3.375 C10.93531145 6.25634723 11.15071125 8.80080928 11.1875 11.6875 C11.2301005 13.18368134 11.27562178 14.67978268 11.32421875 16.17578125 C11.34532715 16.88814941 11.36643555 17.60051758 11.38818359 18.33447266 C11.53748191 21.05900401 11.97683876 23.69964698 12.5 26.375 C9.16666667 26.375 5.83333333 26.375 2.5 26.375 C1.65566406 26.43300781 0.81132812 26.49101563 -0.05859375 26.55078125 C-7.79693962 26.91827393 -7.79693962 26.91827393 -11.25 24.25 C-12.79099524 20.70571095 -12.69110371 19.02771806 -11.5 15.375 C-9.20622813 12.42893675 -7.18286819 11.82446703 -3.5625 11.1875 C-2.70785156 11.02894531 -1.85320312 10.87039062 -0.97265625 10.70703125 C1.5 10.375 1.5 10.375 5.5 10.375 C4.51 8.725 3.52 7.075 2.5 5.375 C0.1568787 5.63061323 -2.17843403 5.96770772 -4.5 6.375 C-4.83 7.035 -5.16 7.695 -5.5 8.375 C-7.48 8.375 -9.46 8.375 -11.5 8.375 C-11.1861466 5.47185608 -10.95544262 3.83152701 -8.859375 1.73046875 C-5.77017204 -0.04428858 -3.5461256 -0.02439995 0 0 Z M4.5 14.375 C3.03815942 14.60360058 1.58044581 14.85870392 0.125 15.125 C-0.68710937 15.26421875 -1.49921875 15.4034375 -2.3359375 15.546875 C-4.67709092 16.19249261 -4.67709092 16.19249261 -5.7890625 18.453125 C-6.02367187 19.08734375 -6.25828125 19.7215625 -6.5 20.375 C-5.84 21.035 -5.18 21.695 -4.5 22.375 C0.48845154 22.19932857 0.48845154 22.19932857 4.5 19.5 C5.8481935 17.26945494 5.8481935 17.26945494 4.5 14.375 Z " fill="#F2B20F" transform="translate(309.5,7.625)"/>
<path d="M0 0 C2.89683868 2.2015974 4.39297231 3.78594462 6 7 C6 9.31 6 11.62 6 14 C0.06 14 -5.88 14 -12 14 C-9.81503182 19.93167398 -9.81503182 19.93167398 -6.5625 21.125 C-3.84622185 21.28010233 -3.84622185 21.28010233 -2.0625 19.0625 C0 17 0 17 3.25 16.75 C4.61125 16.87375 4.61125 16.87375 6 17 C5.73309994 20.20280069 5.16670984 21.7943912 3.125 24.3125 C-1.52993055 26.82616249 -5.82381426 26.90185374 -11 26 C-14.16993851 24.33193527 -16.37482717 22.25034567 -18 19 C-18.40837661 14.12304083 -18.64885631 9.55725515 -16.75 5 C-11.87593812 -0.57035643 -7.18350436 -1.17064515 0 0 Z M-10.25 5.875 C-12.21190242 7.7985035 -12.21190242 7.7985035 -12 10 C-8.04 10 -4.08 10 0 10 C-0.5739739 5.79819816 -0.5739739 5.79819816 -4 4 C-7.97599309 3.5732104 -7.97599309 3.5732104 -10.25 5.875 Z " fill="#F2B20F" transform="translate(158,8)"/>
<path d="M0 0 C3.13447384 1.24893929 3.81240657 2.17915583 6 5 C6.76697591 8.09899728 6.90370747 10.77420014 7 14 C1.06 14.33 -4.88 14.66 -11 15 C-10.34 16.65 -9.68 18.3 -9 20 C-6.14710302 21.25329784 -6.14710302 21.25329784 -3 21 C-1.64567325 19.68799596 -0.31266518 18.35368596 1 17 C4.25 16.75 4.25 16.75 7 17 C5.82498928 21.40629021 4.98252377 23.68647257 1 26 C-3.50937948 26.74432674 -8.79638953 27.29161202 -12.859375 24.91015625 C-14.1875 23.5625 -14.1875 23.5625 -16 21 C-16.33 20.67 -16.66 20.34 -17 20 C-17.15272417 17.92060164 -17.22195322 15.83481069 -17.25 13.75 C-17.27578125 12.61046875 -17.3015625 11.4709375 -17.328125 10.296875 C-16.96743603 6.67280968 -16.185569 4.88004888 -14 2 C-9.51684767 -0.98876822 -5.25122021 -0.70415792 0 0 Z M-9.375 5.8125 C-11.19877467 7.81340984 -11.19877467 7.81340984 -11 10 C-7.04 10 -3.08 10 1 10 C0.34 8.35 -0.32 6.7 -1 5 C-4.73171908 3.62088643 -6.15948668 3.35855563 -9.375 5.8125 Z " fill="#F2B20F" transform="translate(288,8)"/>
<path d="M0 0 C3.13447384 1.24893929 3.81240657 2.17915583 6 5 C6.76697591 8.09899728 6.90370747 10.77420014 7 14 C1.06 14.33 -4.88 14.66 -11 15 C-10.34 16.65 -9.68 18.3 -9 20 C-6.14710302 21.25329784 -6.14710302 21.25329784 -3 21 C-1.64567325 19.68799596 -0.31266518 18.35368596 1 17 C4.25 16.75 4.25 16.75 7 17 C5.82498928 21.40629021 4.98252377 23.68647257 1 26 C-3.50937948 26.74432674 -8.79638953 27.29161202 -12.859375 24.91015625 C-14.1875 23.5625 -14.1875 23.5625 -16 21 C-16.33 20.67 -16.66 20.34 -17 20 C-17.15272417 17.92060164 -17.22195322 15.83481069 -17.25 13.75 C-17.27578125 12.61046875 -17.3015625 11.4709375 -17.328125 10.296875 C-16.96743603 6.67280968 -16.185569 4.88004888 -14 2 C-9.51684767 -0.98876822 -5.25122021 -0.70415792 0 0 Z M-9.375 5.8125 C-11.19877467 7.81340984 -11.19877467 7.81340984 -11 10 C-7.04 10 -3.08 10 1 10 C0.34 8.35 -0.32 6.7 -1 5 C-4.73171908 3.62088643 -6.15948668 3.35855563 -9.375 5.8125 Z " fill="#F2B20F" transform="translate(200,8)"/>
<path d="M0 0 C3.56528685 2.40111155 4.6857236 4.30312625 6.4375 8.1875 C7.32778055 14.22162371 6.72165362 19.58968493 3.125 24.625 C-1.84128505 26.81016542 -6.67401771 26.87661396 -12 26 C-14.97361086 23.78436838 -16.36959793 22.26080415 -18 19 C-18.14851844 17.06640414 -18.22130833 15.12657903 -18.25 13.1875 C-18.27578125 12.14980469 -18.3015625 11.11210937 -18.328125 10.04296875 C-17.95151852 6.55039202 -17.14312477 4.76578939 -15 2 C-10.5802476 -1.0742041 -5.14729058 -0.73314525 0 0 Z M-10.25 5.375 C-12.93676839 9.40515259 -12.76394918 13.29937391 -12 18 C-10.59912251 20.8213337 -10.59912251 20.8213337 -8 22 C-4.89072953 22.32908167 -4.89072953 22.32908167 -2 21 C0.50325784 17.60848938 1.01019043 15.59104503 0.9375 11.375 C-0.08590669 7.6907359 -0.90677716 6.20944489 -4 4 C-7.87062509 3.65236666 -7.87062509 3.65236666 -10.25 5.375 Z " fill="#F2B20F" transform="translate(54,8)"/>
<path d="M0 0 C1.03125 -0.0103125 2.0625 -0.020625 3.125 -0.03125 C6.67219717 0.62421035 7.88441673 1.61141515 10 4.5 C10 5.82 10 7.14 10 8.5 C7.125 8.6875 7.125 8.6875 4 8.5 C3.34 7.51 2.68 6.52 2 5.5 C-0.58380177 5.24969023 -0.58380177 5.24969023 -3 5.5 C-3 6.49 -3 7.48 -3 8.5 C-2.15695313 8.75394531 -1.31390625 9.00789063 -0.4453125 9.26953125 C0.65039062 9.61371094 1.74609375 9.95789062 2.875 10.3125 C4.51082031 10.81716797 4.51082031 10.81716797 6.1796875 11.33203125 C9 12.5 9 12.5 11 15.5 C11.50969658 19.50475881 11.63695724 21.61280956 9.25 24.9375 C4.36992955 27.28368772 -0.68612915 27.49406662 -6 26.5 C-8.73862161 24.30910271 -9.82322806 23.14816379 -10.75 19.75 C-10.8325 19.0075 -10.915 18.265 -11 17.5 C-8.1875 17.25 -8.1875 17.25 -5 17.5 C-3.9739266 18.81337396 -2.97272675 20.14664105 -2 21.5 C0.62625139 21.83425735 0.62625139 21.83425735 3 21.5 C3.33 20.18 3.66 18.86 4 17.5 C3.15695313 17.23445313 2.31390625 16.96890625 1.4453125 16.6953125 C0.34960938 16.34210937 -0.74609375 15.98890625 -1.875 15.625 C-3.51082031 15.10292969 -3.51082031 15.10292969 -5.1796875 14.5703125 C-8 13.5 -8 13.5 -10 11.5 C-10.67752294 5.40229358 -10.67752294 5.40229358 -8.3515625 2.3046875 C-5.38603556 0.02881799 -3.70555798 -0.03705558 0 0 Z " fill="#F2B10F" transform="translate(73,7.5)"/>
<path d="M0 0 C2.33333333 0 4.66666667 0 7 0 C7.73992187 -0.04640625 8.47984375 -0.0928125 9.2421875 -0.140625 C10.11101562 -0.17671875 10.97984375 -0.2128125 11.875 -0.25 C13.17050781 -0.31960937 13.17050781 -0.31960937 14.4921875 -0.390625 C17 0 17 0 19.3046875 1.3125 C22.06262408 5.68452849 21.41649135 10.20403153 21.25 15.25 C21.23195313 16.28125 21.21390625 17.3125 21.1953125 18.375 C21.14822712 20.91761064 21.0824805 23.45833162 21 26 C19.35 26 17.7 26 16 26 C15.95101563 24.73542969 15.90203125 23.47085937 15.8515625 22.16796875 C15.7765262 20.50779053 15.70097873 18.84763536 15.625 17.1875 C15.5940625 16.35412109 15.563125 15.52074219 15.53125 14.66210938 C15.49257813 13.85966797 15.45390625 13.05722656 15.4140625 12.23046875 C15.3826416 11.49207764 15.3512207 10.75368652 15.31884766 9.99291992 C15.09165386 7.68650412 15.09165386 7.68650412 13 5 C10.54775306 5.10613836 10.54775306 5.10613836 8 6 C5.77545832 10.07832641 5.58396085 14.26324811 5.375 18.8125 C5.33632813 19.50537109 5.29765625 20.19824219 5.2578125 20.91210938 C5.16426432 22.60767015 5.08107636 24.30379712 5 26 C3.35 26 1.7 26 0 26 C0 17.42 0 8.84 0 0 Z " fill="#F1B30F" transform="translate(347,8)"/>
<path d="M0 0 C1.98 0 3.96 0 6 0 C6 11.22 6 22.44 6 34 C4.02 34 2.04 34 0 34 C0 22.78 0 11.56 0 0 Z " fill="#F1B410" transform="translate(325,0)"/>
<path d="M0 0 C4.62 0 9.24 0 14 0 C14.33 0.66 14.66 1.32 15 2 C14.67 2.99 14.34 3.98 14 5 C12.02 5 10.04 5 8 5 C6.85345518 7.29308963 6.80270883 8.79909656 6.68359375 11.3515625 C6.64169922 12.20234375 6.59980469 13.053125 6.55664062 13.9296875 C6.51732422 14.81914062 6.47800781 15.70859375 6.4375 16.625 C6.37272461 17.97078125 6.37272461 17.97078125 6.30664062 19.34375 C6.20043139 21.56234283 6.09838806 23.7810488 6 26 C4.02 26 2.04 26 0 26 C0 17.42 0 8.84 0 0 Z " fill="#F1B310" transform="translate(168,8)"/>
<path d="M0 0 C1.98 0 3.96 0 6 0 C6 8.58 6 17.16 6 26 C4.02 26 2.04 26 0 26 C0 17.42 0 8.84 0 0 Z " fill="#F0B310" transform="translate(336,8)"/>
<path d="M0 0 C1.98 0 3.96 0 6 0 C6 1.32 6 2.64 6 4 C4.02 4 2.04 4 0 4 C0 2.68 0 1.36 0 0 Z " fill="#F0B310" transform="translate(336,0)"/>
</svg>
