<?xml version="1.0" encoding="UTF-8"?>
<svg version="1.1" xmlns="http://www.w3.org/2000/svg" width="200" height="24">
<path d="M0 0 C0.66 0.33 1.32 0.66 2 1 C2 1.66 2 2.32 2 3 C2.66 3 3.32 3 4 3 C4.33 2.01 4.66 1.02 5 0 C6.47906892 -0.02689216 7.95827483 -0.04634621 9.4375 -0.0625 C10.26121094 -0.07410156 11.08492187 -0.08570313 11.93359375 -0.09765625 C14 0 14 0 15 1 C15.23427778 3.01594582 15.41336124 5.038474 15.5625 7.0625 C15.68818359 8.71958984 15.68818359 8.71958984 15.81640625 10.41015625 C15.87699219 11.26480469 15.93757813 12.11945312 16 13 C11 13 6 13 1 13 C-0.08474609 13.05220703 -0.08474609 13.05220703 -1.19140625 13.10546875 C-1.97386719 13.13253906 -2.75632813 13.15960938 -3.5625 13.1875 C-4.34753906 13.22230469 -5.13257813 13.25710937 -5.94140625 13.29296875 C-6.62074219 13.19628906 -7.30007812 13.09960938 -8 13 C-10.46324069 9.30513897 -10.38991688 7.36706908 -10 3 C-7.77076514 -1.06507533 -4.20822494 -0.30605272 0 0 Z M-4 2 C-4.99 3.485 -4.99 3.485 -6 5 C-4.35 5 -2.7 5 -1 5 C-1 4.34 -1 3.68 -1 3 C-1.99 2.67 -2.98 2.34 -4 2 Z M3 4 C3 4.99 3 5.98 3 7 C0.03 7 -2.94 7 -6 7 C-5.34 8.32 -4.68 9.64 -4 11 C-1.36 10.01 1.28 9.02 4 8 C4 7.34 4 6.68 4 6 C6.64 5.67 9.28 5.34 12 5 C11.67 4.01 11.34 3.02 11 2 C7.79604584 2 5.90600261 2.74335022 3 4 Z M8 8 C8 8.99 8 9.98 8 11 C9.32 10.34 10.64 9.68 12 9 C10.68 8.67 9.36 8.34 8 8 Z " fill="#F2B10E" transform="translate(145,5)"/>
<path d="M0 0 C1.65 0 3.3 0 5 0 C6.58203125 1.75 6.58203125 1.75 7.8125 4 C8.23144531 4.7425 8.65039062 5.485 9.08203125 6.25 C9.38496094 6.8275 9.68789062 7.405 10 8 C10.33 5.36 10.66 2.72 11 0 C12.32 0 13.64 0 15 0 C15 5.61 15 11.22 15 17 C10 16 10 16 8.41796875 14.37109375 C8.01191406 13.73300781 7.60585937 13.09492188 7.1875 12.4375 C6.76855469 11.79683594 6.34960938 11.15617188 5.91796875 10.49609375 C5.61503906 10.00238281 5.31210938 9.50867187 5 9 C4.67 11.64 4.34 14.28 4 17 C2.68 17 1.36 17 0 17 C0 11.39 0 5.78 0 0 Z " fill="#F1B210" transform="translate(1,1)"/>
<path d="M0 0 C2.77141717 -0.08089542 5.54047819 -0.14044062 8.3125 -0.1875 C9.09818359 -0.21263672 9.88386719 -0.23777344 10.69335938 -0.26367188 C11.45068359 -0.27333984 12.20800781 -0.28300781 12.98828125 -0.29296875 C14.03302612 -0.31653442 14.03302612 -0.31653442 15.09887695 -0.34057617 C17.63578428 0.1138974 18.50266015 0.92444175 20 3 C20 4.32 20 5.64 20 7 C17.03 7 14.06 7 11 7 C11.99 7.99 12.98 8.98 14 10 C17.14921909 9.76716851 17.14921909 9.76716851 20 9 C19.34 10.32 18.68 11.64 18 13 C16.54257537 13.08096803 15.08387193 13.13917774 13.625 13.1875 C12.81289062 13.22230469 12.00078125 13.25710937 11.1640625 13.29296875 C10.44992188 13.19628906 9.73578125 13.09960938 9 13 C6.5705484 9.3558226 6.83820425 7.28758728 7 3 C6.01 3.33 5.02 3.66 4 4 C3.67 6.97 3.34 9.94 3 13 C2.01 13 1.02 13 0 13 C0 8.71 0 4.42 0 0 Z M13 2 C12.01 3.485 12.01 3.485 11 5 C12.65 5 14.3 5 16 5 C16 4.34 16 3.68 16 3 C15.01 2.67 14.02 2.34 13 2 Z " fill="#F2B00E" transform="translate(84,5)"/>
<path d="M0 0 C0.90492188 0.02320313 1.80984375 0.04640625 2.7421875 0.0703125 C4.10730469 0.09738281 4.10730469 0.09738281 5.5 0.125 C6.19867188 0.14820313 6.89734375 0.17140625 7.6171875 0.1953125 C7.67116085 2.6331088 7.71084366 5.06970935 7.7421875 7.5078125 C7.76732422 8.54325195 7.76732422 8.54325195 7.79296875 9.59960938 C7.82936544 13.36666646 7.76097614 14.97962954 5.6171875 18.1953125 C3.453125 18.48828125 3.453125 18.48828125 0.9921875 18.3828125 C-0.23371094 18.34220703 -0.23371094 18.34220703 -1.484375 18.30078125 C-2.11085937 18.26597656 -2.73734375 18.23117188 -3.3828125 18.1953125 C-3.7128125 16.8753125 -4.0428125 15.5553125 -4.3828125 14.1953125 C-2.0728125 14.5253125 0.2371875 14.8553125 2.6171875 15.1953125 C2.9471875 14.5353125 3.2771875 13.8753125 3.6171875 13.1953125 C2.6684375 13.2365625 1.7196875 13.2778125 0.7421875 13.3203125 C-2.3828125 13.1953125 -2.3828125 13.1953125 -4.3828125 11.1953125 C-4.6484375 9.1015625 -4.6484375 9.1015625 -4.6328125 6.6953125 C-4.63796875 5.90125 -4.643125 5.1071875 -4.6484375 4.2890625 C-4.24386116 1.10004897 -3.15571367 0.25866505 0 0 Z M0.6171875 2.1953125 C-1.68356512 4.96276334 -1.68356512 4.96276334 -1.1328125 7.8203125 C-0.8853125 8.6040625 -0.6378125 9.3878125 -0.3828125 10.1953125 C0.2771875 10.5253125 0.9371875 10.8553125 1.6171875 11.1953125 C3.78659671 10.39635837 3.78659671 10.39635837 4.3046875 8.3203125 C4.80707147 6.01348015 4.80707147 6.01348015 3.6171875 3.1953125 C2.6271875 2.8653125 1.6371875 2.5353125 0.6171875 2.1953125 Z " fill="#F2B10F" transform="translate(190.3828125,4.8046875)"/>
<path d="M0 0 C0.99 0 1.98 0 3 0 C3 2.31 3 4.62 3 7 C5.64 7 8.28 7 11 7 C11 4.69 11 2.38 11 0 C12.32 0 13.64 0 15 0 C15 5.61 15 11.22 15 17 C13.68 17 12.36 17 11 17 C11 14.36 11 11.72 11 9 C8.36 9 5.72 9 3 9 C3 11.64 3 14.28 3 17 C2.01 17 1.02 17 0 17 C0 11.39 0 5.78 0 0 Z " fill="#F1B310" transform="translate(119,1)"/>
<path d="M0 0 C1.60875 -0.061875 3.2175 -0.12375 4.875 -0.1875 C5.77992187 -0.22230469 6.68484375 -0.25710937 7.6171875 -0.29296875 C8.79667969 -0.14794922 8.79667969 -0.14794922 10 0 C12.46324069 3.69486103 12.38991688 5.63293092 12 10 C10.875 11.9375 10.875 11.9375 9 13 C5.8125 13.1875 5.8125 13.1875 3 13 C3 14.65 3 16.3 3 18 C2.01 18 1.02 18 0 18 C0 12.06 0 6.12 0 0 Z M5 2 C2.76154985 3.82915641 2.76154985 3.82915641 2.6875 6.5 C2.790625 7.325 2.89375 8.15 3 9 C4.485 9.99 4.485 9.99 6 11 C8.23845015 9.17084359 8.23845015 9.17084359 8.3125 6.5 C8.209375 5.675 8.10625 4.85 8 4 C7.01 3.34 6.02 2.68 5 2 Z " fill="#F2B10F" transform="translate(44,5)"/>
<path d="M0 0 C2.15234375 0.04296875 2.15234375 0.04296875 4.0625 0.4375 C6.09079372 2.84609879 7.0625 4.26794309 7.0625 7.4375 C2.6075 7.9325 2.6075 7.9325 -1.9375 8.4375 C-1.9375 9.0975 -1.9375 9.7575 -1.9375 10.4375 C2.5175 9.9425 2.5175 9.9425 7.0625 9.4375 C6.0625 12.4375 6.0625 12.4375 4.0625 13.4375 C2.1875 13.60546875 2.1875 13.60546875 0.0625 13.625 C-0.989375 13.64626953 -0.989375 13.64626953 -2.0625 13.66796875 C-3.9375 13.4375 -3.9375 13.4375 -5.9375 11.4375 C-6.203125 9.34375 -6.203125 9.34375 -6.1875 6.9375 C-6.19265625 6.1434375 -6.1978125 5.349375 -6.203125 4.53125 C-5.68324829 0.43339829 -3.87955087 0.43106121 0 0 Z M-0.9375 2.4375 C-1.2675 3.4275 -1.5975 4.4175 -1.9375 5.4375 C-0.2875 5.4375 1.3625 5.4375 3.0625 5.4375 C2.4025 4.4475 1.7425 3.4575 1.0625 2.4375 C0.4025 2.4375 -0.2575 2.4375 -0.9375 2.4375 Z " fill="#F1B20F" transform="translate(75.9375,4.5625)"/>
<path d="M0 0 C3.24060953 0.08838026 3.76695408 0.13299814 6.125 2.5625 C7.24778652 6.00571198 7.06186105 7.9781733 6.0625 11.4375 C4.0625 13.4375 4.0625 13.4375 0.125 13.8125 C-2.74301846 13.72385216 -3.65917611 13.64835143 -6 11.875 C-7.33024773 8.4163559 -6.79357025 5.9934841 -5.9375 2.4375 C-3.9375 0.4375 -3.9375 0.4375 0 0 Z M-0.9375 2.4375 C-3.22478734 4.27633881 -3.22478734 4.27633881 -3.0625 7.0625 C-3.02125 7.84625 -2.98 8.63 -2.9375 9.4375 C-0.9575 10.4275 -0.9575 10.4275 1.0625 11.4375 C3.39641203 8.65635944 3.39641203 8.65635944 2.6875 5.75 C2.48125 4.986875 2.275 4.22375 2.0625 3.4375 C1.0725 3.1075 0.0825 2.7775 -0.9375 2.4375 Z " fill="#F1B20F" transform="translate(23.9375,4.5625)"/>
<path d="M0 0 C2.01822917 0.06510417 4.03645833 0.13020833 6.0546875 0.1953125 C6.3846875 1.5153125 6.7146875 2.8353125 7.0546875 4.1953125 C4.0846875 3.7003125 4.0846875 3.7003125 1.0546875 3.1953125 C2.0240625 3.5871875 2.9934375 3.9790625 3.9921875 4.3828125 C7.0546875 6.1953125 7.0546875 6.1953125 8.0546875 8.7578125 C8.0546875 9.5621875 8.0546875 10.3665625 8.0546875 11.1953125 C6.0546875 13.1953125 6.0546875 13.1953125 3.890625 13.390625 C2.67246094 13.35582031 2.67246094 13.35582031 1.4296875 13.3203125 C0.61242188 13.30226563 -0.20484375 13.28421875 -1.046875 13.265625 C-1.67335937 13.24242187 -2.29984375 13.21921875 -2.9453125 13.1953125 C-3.2753125 11.8753125 -3.6053125 10.5553125 -3.9453125 9.1953125 C-1.6353125 9.5253125 0.6746875 9.8553125 3.0546875 10.1953125 C0.1862462 8.09298906 0.1862462 8.09298906 -2.9453125 7.1953125 C-3.5703125 4.8203125 -3.5703125 4.8203125 -3.9453125 2.1953125 C-1.9453125 0.1953125 -1.9453125 0.1953125 0 0 Z " fill="#F2B00E" transform="translate(34.9453125,4.8046875)"/>
<path d="M0 0 C0.99 0 1.98 0 3 0 C3 1.32 3 2.64 3 4 C4.7015625 3.9690625 4.7015625 3.9690625 6.4375 3.9375 C10 4 10 4 11 5 C11.07244053 7.01964199 11.08377188 9.04167124 11.0625 11.0625 C11.05347656 12.16722656 11.04445313 13.27195312 11.03515625 14.41015625 C11.02355469 15.26480469 11.01195313 16.11945312 11 17 C10.01 17 9.02 17 8 17 C7.67 13.7 7.34 10.4 7 7 C6.34 7 5.68 7 5 7 C4.34 10.3 3.68 13.6 3 17 C2.01 17 1.02 17 0 17 C0 11.39 0 5.78 0 0 Z " fill="#F1B310" transform="translate(57,1)"/>
<path d="M0 0 C7.71484375 -0.09765625 7.71484375 -0.09765625 10 0 C11 1 11 1 11.09765625 3.72265625 C11.08605469 4.82480469 11.07445312 5.92695313 11.0625 7.0625 C11.05347656 8.16722656 11.04445312 9.27195312 11.03515625 10.41015625 C11.02355469 11.26480469 11.01195312 12.11945312 11 13 C10.01 13 9.02 13 8 13 C7.67 9.7 7.34 6.4 7 3 C6.34 3 5.68 3 5 3 C4.34 6.3 3.68 9.6 3 13 C2.01 13 1.02 13 0 13 C0 8.71 0 4.42 0 0 Z " fill="#F1B310" transform="translate(173,5)"/>
<path d="M0 0 C1.32 0 2.64 0 4 0 C4 5.61 4 11.22 4 17 C2.68 17 1.36 17 0 17 C0 11.39 0 5.78 0 0 Z " fill="#F2B410" transform="translate(162,1)"/>
<path d="M0 0 C0.99 0 1.98 0 3 0 C3 4.29 3 8.58 3 13 C2.01 13 1.02 13 0 13 C0 8.71 0 4.42 0 0 Z " fill="#F2B310" transform="translate(168,5)"/>
<path d="M0 0 C0.99 0 1.98 0 3 0 C3 0.66 3 1.32 3 2 C2.01 2 1.02 2 0 2 C0 1.34 0 0.68 0 0 Z " fill="#F2B310" transform="translate(168,1)"/>
</svg>
